<svg width="24.000000" height="24.000000" viewBox="0 0 24 24" fill="none" xmlns="http://www.w3.org/2000/svg" xmlns:xlink="http://www.w3.org/1999/xlink">
	<desc>
			Created with Pixso.
	</desc>
	<defs/>
	<rect id="Background" rx="11.500000" width="23.000000" height="23.000000" transform="translate(0.500000 0.500000)" fill="#F7F7F7" fill-opacity="1.000000"/>
	<path id="Vector" d="M15.21 12.42C16.62 13.11 17.54 14.42 17.54 16.55L17.54 16.92C17.54 17.27 17.24 17.54 16.86 17.54L7.13 17.54C6.75 17.54 6.45 17.27 6.45 16.92L6.45 16.55C6.45 14.44 7.35 13.14 8.74 12.44C9.16 12.86 9.66 13.2 10.22 13.43C10.77 13.66 11.37 13.78 11.97 13.77C13.24 13.77 14.39 13.25 15.21 12.42ZM11.97 5.83C13.91 5.83 15.49 7.39 15.49 9.31C15.49 11.23 13.91 12.78 11.97 12.78C10.02 12.78 8.44 11.23 8.44 9.31C8.44 7.39 10.02 5.83 11.97 5.83L11.97 5.83Z" fill="#202249" fill-opacity="1.000000" fill-rule="evenodd"/>
</svg>
