<svg width="250.000000" height="83.000000" viewBox="0 0 250 83" fill="none" xmlns="http://www.w3.org/2000/svg" xmlns:xlink="http://www.w3.org/1999/xlink">
	<desc>
			Created with Pixso.
	</desc>
	<defs>
		<clipPath id="clip1_718">
			<rect id="Component 1" rx="0.000000" width="249.000000" height="81.000000" transform="translate(0.500000 1.000000)" fill="white" fill-opacity="0"/>
		</clipPath>
		<clipPath id="clip1_717">
			<rect id="co-logo_visa-x-DLP_partner-dlp_250x83_frame-partner_MOP_UK_tcm752-285601.svg fill" rx="0.000000" width="249.000000" height="82.000000" transform="translate(0.500000 0.500000)" fill="white" fill-opacity="0"/>
		</clipPath>
		<linearGradient x1="118.992020" y1="41.623184" x2="250.253983" y2="41.623184" id="paint_linear_7_132_0" gradientUnits="userSpaceOnUse">
			<stop stop-color="#4EC1F0"/>
			<stop offset="0.060000" stop-color="#48ACE0"/>
			<stop offset="0.190000" stop-color="#3B76BA"/>
			<stop offset="0.250000" stop-color="#345AA5"/>
			<stop offset="0.300000" stop-color="#4056A1"/>
			<stop offset="0.400000" stop-color="#5F4C99"/>
			<stop offset="0.500000" stop-color="#8A3F8F"/>
			<stop offset="0.750000" stop-color="#E72E6B"/>
			<stop offset="0.990000" stop-color="#5B4192"/>
		</linearGradient>
		<linearGradient x1="118.991989" y1="41.607925" x2="250.253967" y2="41.607925" id="paint_linear_7_133_0" gradientUnits="userSpaceOnUse">
			<stop stop-color="#4EC1F0"/>
			<stop offset="0.060000" stop-color="#48ACE0"/>
			<stop offset="0.190000" stop-color="#3B76BA"/>
			<stop offset="0.250000" stop-color="#345AA5"/>
			<stop offset="0.300000" stop-color="#4056A1"/>
			<stop offset="0.400000" stop-color="#5F4C99"/>
			<stop offset="0.500000" stop-color="#8A3F8F"/>
			<stop offset="0.750000" stop-color="#E72E6B"/>
			<stop offset="0.990000" stop-color="#5B4192"/>
		</linearGradient>
		<linearGradient x1="118.992035" y1="41.713882" x2="250.253998" y2="41.713882" id="paint_linear_7_134_0" gradientUnits="userSpaceOnUse">
			<stop stop-color="#4EC1F0"/>
			<stop offset="0.060000" stop-color="#48ACE0"/>
			<stop offset="0.190000" stop-color="#3B76BA"/>
			<stop offset="0.250000" stop-color="#345AA5"/>
			<stop offset="0.300000" stop-color="#4056A1"/>
			<stop offset="0.400000" stop-color="#5F4C99"/>
			<stop offset="0.500000" stop-color="#8A3F8F"/>
			<stop offset="0.750000" stop-color="#E72E6B"/>
			<stop offset="0.990000" stop-color="#5B4192"/>
		</linearGradient>
		<linearGradient x1="118.992065" y1="46.078552" x2="250.253937" y2="46.078552" id="paint_linear_7_135_0" gradientUnits="userSpaceOnUse">
			<stop stop-color="#4EC1F0"/>
			<stop offset="0.060000" stop-color="#48ACE0"/>
			<stop offset="0.190000" stop-color="#3B76BA"/>
			<stop offset="0.250000" stop-color="#345AA5"/>
			<stop offset="0.300000" stop-color="#4056A1"/>
			<stop offset="0.400000" stop-color="#5F4C99"/>
			<stop offset="0.500000" stop-color="#8A3F8F"/>
			<stop offset="0.750000" stop-color="#E72E6B"/>
			<stop offset="0.990000" stop-color="#5B4192"/>
		</linearGradient>
		<linearGradient x1="118.992050" y1="41.775513" x2="250.253952" y2="41.775513" id="paint_linear_7_136_0" gradientUnits="userSpaceOnUse">
			<stop stop-color="#4EC1F0"/>
			<stop offset="0.060000" stop-color="#48ACE0"/>
			<stop offset="0.190000" stop-color="#3B76BA"/>
			<stop offset="0.250000" stop-color="#345AA5"/>
			<stop offset="0.300000" stop-color="#4056A1"/>
			<stop offset="0.400000" stop-color="#5F4C99"/>
			<stop offset="0.500000" stop-color="#8A3F8F"/>
			<stop offset="0.750000" stop-color="#E72E6B"/>
			<stop offset="0.990000" stop-color="#5B4192"/>
		</linearGradient>
		<linearGradient x1="118.991997" y1="40.463409" x2="250.253967" y2="40.463409" id="paint_linear_7_137_0" gradientUnits="userSpaceOnUse">
			<stop stop-color="#4EC1F0"/>
			<stop offset="0.060000" stop-color="#48ACE0"/>
			<stop offset="0.190000" stop-color="#3B76BA"/>
			<stop offset="0.250000" stop-color="#345AA5"/>
			<stop offset="0.300000" stop-color="#4056A1"/>
			<stop offset="0.400000" stop-color="#5F4C99"/>
			<stop offset="0.500000" stop-color="#8A3F8F"/>
			<stop offset="0.750000" stop-color="#E72E6B"/>
			<stop offset="0.990000" stop-color="#5B4192"/>
		</linearGradient>
		<linearGradient x1="118.991959" y1="41.135025" x2="250.254059" y2="41.135025" id="paint_linear_7_138_0" gradientUnits="userSpaceOnUse">
			<stop stop-color="#4EC1F0"/>
			<stop offset="0.060000" stop-color="#48ACE0"/>
			<stop offset="0.190000" stop-color="#3B76BA"/>
			<stop offset="0.250000" stop-color="#345AA5"/>
			<stop offset="0.300000" stop-color="#4056A1"/>
			<stop offset="0.400000" stop-color="#5F4C99"/>
			<stop offset="0.500000" stop-color="#8A3F8F"/>
			<stop offset="0.750000" stop-color="#E72E6B"/>
			<stop offset="0.990000" stop-color="#5B4192"/>
		</linearGradient>
		<linearGradient x1="118.991936" y1="41.114929" x2="250.254181" y2="41.114929" id="paint_linear_7_139_0" gradientUnits="userSpaceOnUse">
			<stop stop-color="#4EC1F0"/>
			<stop offset="0.060000" stop-color="#48ACE0"/>
			<stop offset="0.190000" stop-color="#3B76BA"/>
			<stop offset="0.250000" stop-color="#345AA5"/>
			<stop offset="0.300000" stop-color="#4056A1"/>
			<stop offset="0.400000" stop-color="#5F4C99"/>
			<stop offset="0.500000" stop-color="#8A3F8F"/>
			<stop offset="0.750000" stop-color="#E72E6B"/>
			<stop offset="0.990000" stop-color="#5B4192"/>
		</linearGradient>
		<linearGradient x1="118.992020" y1="30.398087" x2="250.254028" y2="30.398087" id="paint_linear_7_140_0" gradientUnits="userSpaceOnUse">
			<stop stop-color="#4EC1F0"/>
			<stop offset="0.060000" stop-color="#48ACE0"/>
			<stop offset="0.190000" stop-color="#3B76BA"/>
			<stop offset="0.250000" stop-color="#345AA5"/>
			<stop offset="0.300000" stop-color="#4056A1"/>
			<stop offset="0.400000" stop-color="#5F4C99"/>
			<stop offset="0.500000" stop-color="#8A3F8F"/>
			<stop offset="0.750000" stop-color="#E72E6B"/>
			<stop offset="0.990000" stop-color="#5B4192"/>
		</linearGradient>
		<linearGradient x1="118.991943" y1="42.677185" x2="250.254013" y2="42.677185" id="paint_linear_7_141_0" gradientUnits="userSpaceOnUse">
			<stop stop-color="#4EC1F0"/>
			<stop offset="0.060000" stop-color="#48ACE0"/>
			<stop offset="0.190000" stop-color="#3B76BA"/>
			<stop offset="0.250000" stop-color="#345AA5"/>
			<stop offset="0.300000" stop-color="#4056A1"/>
			<stop offset="0.400000" stop-color="#5F4C99"/>
			<stop offset="0.500000" stop-color="#8A3F8F"/>
			<stop offset="0.750000" stop-color="#E72E6B"/>
			<stop offset="0.990000" stop-color="#5B4192"/>
		</linearGradient>
		<linearGradient x1="118.991997" y1="36.286194" x2="250.253998" y2="36.286194" id="paint_linear_7_142_0" gradientUnits="userSpaceOnUse">
			<stop stop-color="#4EC1F0"/>
			<stop offset="0.060000" stop-color="#48ACE0"/>
			<stop offset="0.190000" stop-color="#3B76BA"/>
			<stop offset="0.250000" stop-color="#345AA5"/>
			<stop offset="0.300000" stop-color="#4056A1"/>
			<stop offset="0.400000" stop-color="#5F4C99"/>
			<stop offset="0.500000" stop-color="#8A3F8F"/>
			<stop offset="0.750000" stop-color="#E72E6B"/>
			<stop offset="0.990000" stop-color="#5B4192"/>
		</linearGradient>
		<linearGradient x1="118.990776" y1="45.633987" x2="250.254028" y2="45.633987" id="paint_linear_7_143_0" gradientUnits="userSpaceOnUse">
			<stop stop-color="#4EC1F0"/>
			<stop offset="0.060000" stop-color="#48ACE0"/>
			<stop offset="0.190000" stop-color="#3B76BA"/>
			<stop offset="0.250000" stop-color="#345AA5"/>
			<stop offset="0.300000" stop-color="#4056A1"/>
			<stop offset="0.400000" stop-color="#5F4C99"/>
			<stop offset="0.500000" stop-color="#8A3F8F"/>
			<stop offset="0.750000" stop-color="#E72E6B"/>
			<stop offset="0.990000" stop-color="#5B4192"/>
		</linearGradient>
		<linearGradient x1="118.992226" y1="45.625153" x2="250.253967" y2="45.625153" id="paint_linear_7_144_0" gradientUnits="userSpaceOnUse">
			<stop stop-color="#4EC1F0"/>
			<stop offset="0.060000" stop-color="#48ACE0"/>
			<stop offset="0.190000" stop-color="#3B76BA"/>
			<stop offset="0.250000" stop-color="#345AA5"/>
			<stop offset="0.300000" stop-color="#4056A1"/>
			<stop offset="0.400000" stop-color="#5F4C99"/>
			<stop offset="0.500000" stop-color="#8A3F8F"/>
			<stop offset="0.750000" stop-color="#E72E6B"/>
			<stop offset="0.990000" stop-color="#5B4192"/>
		</linearGradient>
		<linearGradient x1="118.992157" y1="52.539474" x2="250.253845" y2="52.539474" id="paint_linear_7_145_0" gradientUnits="userSpaceOnUse">
			<stop stop-color="#4EC1F0"/>
			<stop offset="0.060000" stop-color="#48ACE0"/>
			<stop offset="0.190000" stop-color="#3B76BA"/>
			<stop offset="0.250000" stop-color="#345AA5"/>
			<stop offset="0.300000" stop-color="#4056A1"/>
			<stop offset="0.400000" stop-color="#5F4C99"/>
			<stop offset="0.500000" stop-color="#8A3F8F"/>
			<stop offset="0.750000" stop-color="#E72E6B"/>
			<stop offset="0.990000" stop-color="#5B4192"/>
		</linearGradient>
		<linearGradient x1="118.991920" y1="52.539505" x2="250.254059" y2="52.539505" id="paint_linear_7_146_0" gradientUnits="userSpaceOnUse">
			<stop stop-color="#4EC1F0"/>
			<stop offset="0.060000" stop-color="#48ACE0"/>
			<stop offset="0.190000" stop-color="#3B76BA"/>
			<stop offset="0.250000" stop-color="#345AA5"/>
			<stop offset="0.300000" stop-color="#4056A1"/>
			<stop offset="0.400000" stop-color="#5F4C99"/>
			<stop offset="0.500000" stop-color="#8A3F8F"/>
			<stop offset="0.750000" stop-color="#E72E6B"/>
			<stop offset="0.990000" stop-color="#5B4192"/>
		</linearGradient>
		<linearGradient x1="118.992119" y1="52.539520" x2="250.253937" y2="52.539520" id="paint_linear_7_147_0" gradientUnits="userSpaceOnUse">
			<stop stop-color="#4EC1F0"/>
			<stop offset="0.060000" stop-color="#48ACE0"/>
			<stop offset="0.190000" stop-color="#3B76BA"/>
			<stop offset="0.250000" stop-color="#345AA5"/>
			<stop offset="0.300000" stop-color="#4056A1"/>
			<stop offset="0.400000" stop-color="#5F4C99"/>
			<stop offset="0.500000" stop-color="#8A3F8F"/>
			<stop offset="0.750000" stop-color="#E72E6B"/>
			<stop offset="0.990000" stop-color="#5B4192"/>
		</linearGradient>
		<linearGradient x1="118.992973" y1="52.539474" x2="250.253784" y2="52.539474" id="paint_linear_7_148_0" gradientUnits="userSpaceOnUse">
			<stop stop-color="#4EC1F0"/>
			<stop offset="0.060000" stop-color="#48ACE0"/>
			<stop offset="0.190000" stop-color="#3B76BA"/>
			<stop offset="0.250000" stop-color="#345AA5"/>
			<stop offset="0.300000" stop-color="#4056A1"/>
			<stop offset="0.400000" stop-color="#5F4C99"/>
			<stop offset="0.500000" stop-color="#8A3F8F"/>
			<stop offset="0.750000" stop-color="#E72E6B"/>
			<stop offset="0.990000" stop-color="#5B4192"/>
		</linearGradient>
		<linearGradient x1="118.992065" y1="52.540421" x2="250.253967" y2="52.540421" id="paint_linear_7_149_0" gradientUnits="userSpaceOnUse">
			<stop stop-color="#4EC1F0"/>
			<stop offset="0.060000" stop-color="#48ACE0"/>
			<stop offset="0.190000" stop-color="#3B76BA"/>
			<stop offset="0.250000" stop-color="#345AA5"/>
			<stop offset="0.300000" stop-color="#4056A1"/>
			<stop offset="0.400000" stop-color="#5F4C99"/>
			<stop offset="0.500000" stop-color="#8A3F8F"/>
			<stop offset="0.750000" stop-color="#E72E6B"/>
			<stop offset="0.990000" stop-color="#5B4192"/>
		</linearGradient>
	</defs>
	<g clip-path="url(#clip1_717)">
		<g clip-path="url(#clip1_718)">
			<path id="Vector" d="M5.05 6.25L239.8 6.25C244.08 6.25 247.55 9.71 247.55 14L247.55 72C247.55 76.28 244.08 79.75 239.8 79.75L12.8 79.75C8.52 79.75 5.05 76.28 5.05 72L5.05 6.25Z" fill="#FFFFFF" fill-opacity="1.000000" fill-rule="nonzero"/>
			<path id="Vector" d="M239.8 6.25C244.08 6.25 247.55 9.71 247.55 14L247.55 72C247.55 76.28 244.08 79.75 239.8 79.75L12.8 79.75C8.52 79.75 5.05 76.28 5.05 72L5.05 6.25L239.8 6.25Z" stroke="#091129" stroke-opacity="1.000000" stroke-width="0.500000"/>
			<path id="Vector" d="M4.8 6L10.03 6L10.03 12.68L4.8 12.68L4.8 6Z" fill="#FFFFFF" fill-opacity="1.000000" fill-rule="evenodd"/>
			<path id="Vector" d="M4.05 6.79C4.33 6.94 4.52 7.15 4.62 7.45C4.72 7.72 4.78 8 4.83 8.28C4.9 8.65 4.95 9.02 4.97 9.4C4.99 9.71 5.01 10.01 5.03 10.32C5.03 10.42 5.04 10.51 5.04 10.6C5.04 10.65 5.05 10.68 5.11 10.68L5.11 10.68C5.16 10.68 5.17 10.65 5.18 10.6C5.18 10.51 5.19 10.42 5.19 10.32C5.21 10.01 5.23 9.71 5.25 9.4C5.27 9.02 5.32 8.65 5.39 8.28C5.44 8 5.5 7.72 5.6 7.45C5.7 7.15 5.89 6.94 6.17 6.79C6.45 6.65 6.74 6.56 7.05 6.49C7.34 6.43 7.63 6.4 7.92 6.38C7.95 6.38 7.99 6.37 8.01 6.35C8.05 6.31 8.01 6.24 7.95 6.24C7.85 6.23 7.74 6.22 7.64 6.21C7.16 6.16 6.69 6.08 6.24 5.87C6.2 5.84 6.16 5.82 6.11 5.8C5.87 5.66 5.71 5.47 5.61 5.21C5.51 4.93 5.44 4.64 5.39 4.34C5.31 3.9 5.26 3.45 5.23 2.99C5.21 2.68 5.2 2.36 5.18 2.05C5.17 1.97 5.15 1.93 5.11 1.93C5.07 1.93 5.04 1.97 5.04 2.05C5.02 2.36 5.01 2.68 4.99 2.99C4.96 3.45 4.91 3.9 4.83 4.34C4.78 4.64 4.71 4.93 4.61 5.21C4.51 5.47 4.34 5.66 4.1 5.8C4.06 5.82 4.02 5.84 3.98 5.87C3.53 6.08 3.06 6.16 2.58 6.21C2.48 6.22 2.37 6.23 2.27 6.24C2.21 6.24 2.17 6.31 2.21 6.35C2.23 6.37 2.27 6.38 2.3 6.38C2.59 6.4 2.88 6.43 3.17 6.49C3.47 6.56 3.77 6.65 4.05 6.79Z" fill="#F84747" fill-opacity="1.000000" fill-rule="nonzero"/>
			<path id="Vector" d="M4.05 6.79C4.33 6.94 4.52 7.15 4.62 7.45C4.72 7.72 4.78 8 4.83 8.28C4.9 8.65 4.95 9.02 4.97 9.4C4.99 9.71 5.01 10.01 5.03 10.32C5.03 10.42 5.04 10.51 5.04 10.6C5.04 10.65 5.05 10.68 5.11 10.68L5.11 10.68C5.16 10.68 5.17 10.65 5.18 10.6C5.18 10.51 5.19 10.42 5.19 10.32C5.21 10.01 5.23 9.71 5.25 9.4C5.27 9.02 5.32 8.65 5.39 8.28C5.44 8 5.5 7.72 5.6 7.45C5.7 7.15 5.89 6.94 6.17 6.79C6.45 6.65 6.74 6.56 7.05 6.49C7.34 6.43 7.63 6.4 7.92 6.38C7.95 6.38 7.99 6.37 8.01 6.35C8.05 6.31 8.01 6.24 7.95 6.24C7.85 6.23 7.74 6.22 7.64 6.21C7.16 6.16 6.69 6.08 6.24 5.87C6.2 5.84 6.16 5.82 6.11 5.8C5.87 5.66 5.71 5.47 5.61 5.21C5.51 4.93 5.44 4.64 5.39 4.34C5.31 3.9 5.26 3.45 5.23 2.99C5.21 2.68 5.2 2.36 5.18 2.05C5.17 1.97 5.15 1.93 5.11 1.93C5.07 1.93 5.04 1.97 5.04 2.05C5.02 2.36 5.01 2.68 4.99 2.99C4.96 3.45 4.91 3.9 4.83 4.34C4.78 4.64 4.71 4.93 4.61 5.21C4.51 5.47 4.34 5.66 4.1 5.8C4.06 5.82 4.02 5.84 3.98 5.87C3.53 6.08 3.06 6.16 2.58 6.21C2.48 6.22 2.37 6.23 2.27 6.24C2.21 6.24 2.17 6.31 2.21 6.35C2.23 6.37 2.27 6.38 2.3 6.38C2.59 6.4 2.88 6.43 3.17 6.49C3.47 6.56 3.77 6.65 4.05 6.79Z" fill="#091129" fill-opacity="1.000000" fill-rule="nonzero"/>
			<path id="Vector" d="M41.24 24.41L31.72 47.18L25.5 47.18L20.82 29.01C20.53 27.89 20.28 27.48 19.42 27.01C18.01 26.24 15.67 25.52 13.62 25.07L13.76 24.41L23.76 24.41C25.04 24.41 26.18 25.26 26.47 26.73L28.95 39.91L35.07 24.41L41.24 24.41ZM65.59 39.74C65.61 33.74 57.3 33.4 57.35 30.72C57.37 29.9 58.15 29.03 59.85 28.81C60.69 28.7 63.01 28.62 65.64 29.83L66.67 25C65.26 24.49 63.44 24 61.18 24C55.37 24 51.28 27.09 51.24 31.52C51.2 34.8 54.16 36.63 56.39 37.72C58.68 38.83 59.45 39.55 59.44 40.54C59.42 42.07 57.61 42.75 55.92 42.77C52.96 42.82 51.25 41.97 49.88 41.34L48.82 46.32C50.19 46.95 52.73 47.5 55.36 47.53C61.53 47.53 65.57 44.48 65.59 39.74ZM80.93 47.18L86.37 47.18L81.62 24.41L76.61 24.41C75.48 24.41 74.53 25.07 74.1 26.08L65.28 47.18L71.46 47.18L72.68 43.78L80.22 43.78L80.93 47.18ZM74.37 39.11L77.47 30.56L79.25 39.11L74.37 39.11ZM49.64 24.41L44.78 47.18L38.9 47.18L43.76 24.41L49.64 24.41Z" fill="#1434CB" fill-opacity="1.000000" fill-rule="nonzero"/>
			<mask id="mask7_131" mask-type="alpha" maskUnits="userSpaceOnUse" x="120.375000" y="24.000000" width="116.000000" height="32.000000">
				<path id="Vector" d="M120.37 24L236.37 24L236.37 56L120.37 56L120.37 24Z" fill="#000000" fill-opacity="1.000000" fill-rule="evenodd"/>
			</mask>
			<g mask="url(#mask7_131)">
				<path id="Vector" d="M222.86 42.79C222.69 46.38 221.06 46.84 220.72 46.94C219.88 47.18 219.3 46.63 218.76 45.77C218.21 44.9 216.94 41.15 216.57 41.16C216 41.16 215.23 45.83 215.22 46.19C215.21 46.56 215.05 47.14 214.48 47.1C213.91 47.06 213.51 46.69 213.48 46.14C213.54 43.15 214.88 39.1 215.06 38.52C215.21 38.04 215.9 37.62 216.41 37.5C217.55 37.22 219.78 43.27 220.41 43.28C220.61 43.28 220.56 43.26 220.6 42.86C220.69 41.99 220.64 40.15 220.43 38.78C220.24 37.56 219.93 36.63 219.96 36.42C220.05 35.94 220.71 36.12 221.14 36.59C221.48 36.96 223.05 38.85 222.86 42.79L222.86 42.79Z" fill="url(#paint_linear_7_132_0)" fill-opacity="1.000000" fill-rule="nonzero"/>
				<path id="Vector" d="M212.17 46.58C211.23 47.61 210.8 47.52 210.22 47.29C209.74 47.09 210.12 44.69 209.94 43.46C208.53 43.64 206.56 44 205.81 43.99C205.65 43.99 205.48 44.74 205.49 45.36C205.5 46.29 205.63 47.36 205.2 47.4C204.2 47.48 203.48 46.34 203.43 45.53C203.38 44.72 203.73 43.71 203.61 43.56C203.55 43.47 203.46 43.47 203.36 43.25C203.11 42.7 202.87 41.3 202.97 41.27C203.06 41.23 203.17 41.22 203.26 41.22C203.54 41.25 204.04 41.91 204.19 41.58C204.36 41.23 204.62 39.09 206.29 36.82C206.78 36.15 208.81 35.36 209.4 36.02C211.28 37.12 212.35 40.44 212.5 41.48C212.65 42.47 213.1 45.56 212.17 46.58ZM209.81 41.65C209.55 40.58 209.02 37.45 207.9 37.84C206.95 38.16 206.25 40.45 206.11 41.84C207.33 42.01 208.69 41.72 209.81 41.65Z" fill="url(#paint_linear_7_133_0)" fill-opacity="1.000000" fill-rule="nonzero"/>
				<path id="Vector" d="M201.61 47.05C200.96 47.42 199.78 48.32 197.42 47.38C196.25 46.91 195.63 45.43 196.3 43.49C196.6 42.63 197.99 39 198.23 37.86C198.52 36.5 198.03 35.92 198.11 35.77C198.49 35.09 199.93 36.95 200.02 37.8C200.25 40.26 198.82 43.47 198.65 44.34C198.42 45.53 199.61 45.11 200.17 45.01C200.74 44.92 202.02 44.3 202.56 44.63C203.09 44.95 202.68 46.46 201.61 47.05L201.61 47.05Z" fill="url(#paint_linear_7_134_0)" fill-opacity="1.000000" fill-rule="nonzero"/>
				<path id="Vector" d="M192.06 46.32C190.92 46.93 189.72 46.85 189.67 47.02C188.05 52.87 188.55 55.77 188.28 55.93C187.72 56.27 186.11 55.15 186.07 54.72C185.81 51.58 186.85 47.96 187.37 46.19C187.38 46.15 186.84 45.99 186.09 44.7C185.75 44.1 185.58 42.86 185.87 41.64C186.22 40.14 189.32 36.23 189.87 36.15C190.31 36.09 190.24 37 190.02 37.54C189.7 38.37 188.96 39.08 188.46 39.81C187.96 40.55 187.19 41.91 187.63 42.89C187.93 43.54 188.14 43.78 188.38 43.6C188.84 43.26 189.42 39.53 194.3 37.01C195.38 36.46 196.18 38.69 196.09 40.06C195.79 44.65 192.78 45.94 192.06 46.32L192.06 46.32ZM194.9 41.48C195.32 40.8 195.51 39.02 194.62 39.2C193.58 39.4 190.71 44.02 190.69 44.45C190.68 44.87 192.16 44.26 192.43 44.13C192.86 43.94 193.76 43.33 194.9 41.48L194.9 41.48Z" fill="url(#paint_linear_7_135_0)" fill-opacity="1.000000" fill-rule="nonzero"/>
				<path id="Vector" d="M181.36 38.76C181.21 39.2 180.98 39.44 180.73 39.95C180.5 40.42 183.39 40.14 184.23 40.39C184.4 40.52 184.37 41.28 184.33 41.62C184.28 42.07 180.41 41.85 180.13 42.1C179.99 42.23 179.13 44.13 179.4 44.28C179.85 44.54 183.5 43.39 184.06 43.78C184.92 44.37 184.89 44.84 184.51 45.21C184.15 45.56 179.3 48.13 178.01 46.84C177.11 45.95 176.89 45.55 176.98 44.29C177.08 42.96 177.88 42.31 177.77 42.11C177.5 41.59 177.56 40.83 177.71 40.52C177.86 40.23 178.44 40.48 178.5 40.37C178.75 39.92 179.07 38.83 179.29 38.5C179.51 38.17 178.14 38.25 177.94 37.98C177.74 37.72 177.03 36.83 178.06 36.82C180.6 36.81 183.92 36.2 184.79 36.37C185.47 36.51 186.77 37.75 186.15 38.25C184.92 39.07 182.78 38.4 181.36 38.76L181.36 38.76Z" fill="url(#paint_linear_7_136_0)" fill-opacity="1.000000" fill-rule="nonzero"/>
				<path id="Vector" d="M175.44 44.97C174.67 46.1 173.87 45.97 173.25 45.62C171.57 44.69 170.54 39.99 169.75 40.07C169.28 40.11 169.5 45.77 169.12 46.05C168.74 46.32 168.49 46.8 167.68 46.09C167.35 45.79 167.57 43.14 167.57 43.14C167.71 40.98 167.96 37.32 169.03 36.79C169.9 36.36 171 38.35 171.5 39.03C172 39.71 173.48 42.91 173.93 42.84C174.42 42.76 173.97 40.04 173.91 39.42C173.69 36.94 172.27 34.94 172.9 34.49C173.37 34.16 175.29 36.16 175.76 37.97C176.03 39.05 177.21 42.39 175.44 44.97Z" fill="url(#paint_linear_7_137_0)" fill-opacity="1.000000" fill-rule="nonzero"/>
				<path id="Vector" d="M165.49 37.78C162.81 37.82 158.72 38.12 158.25 38.42C157.85 38.67 157.81 38.81 158.74 39.11C160.29 39.61 165.21 39.01 166.49 41.46C166.79 42.24 166.76 43.68 166.2 44.68C165.56 45.83 162.72 46.5 160.73 46.3C159.34 46.17 156.5 45.36 156.4 43.23C156.47 42.38 156.66 41.73 158.19 41.29C159.93 40.79 163.63 41.84 163.85 42.49C163.99 42.91 161.83 43.57 160.81 43.27C159.97 43.02 158.31 41.51 157.44 42.94C157.24 43.54 157.73 43.82 158.19 43.97C160.86 44.58 164.64 43.81 165.07 42.83C165.49 41.85 163.96 41.54 163.17 41.23C160.9 40.31 157.79 41.11 156.38 40.12C155.59 39.15 156.09 38.27 156.39 37.7C157.64 35.75 162.36 35.9 163.56 35.94C164.62 35.98 166.82 36.03 166.94 36.53C167.19 37.5 166.05 37.62 165.49 37.78L165.49 37.78Z" fill="url(#paint_linear_7_138_0)" fill-opacity="1.000000" fill-rule="nonzero"/>
				<path id="Vector" d="M154.22 46.26C153.8 46.46 152.5 46.12 152.63 45.6C152.3 42.47 152.66 39.02 153.05 36.38C153.24 35.83 154.23 35.36 154.62 37.31C154.87 41.07 154.92 42.11 154.88 45.32C154.88 45.32 154.9 45.94 154.22 46.26Z" fill="url(#paint_linear_7_139_0)" fill-opacity="1.000000" fill-rule="nonzero"/>
				<path id="Vector" d="M158.5 27.59C158.65 27.69 159.95 27.2 160.71 28.74C161.4 30.12 158.8 32.32 156.73 33.35C155.41 33.96 153.92 34.04 152.44 33.66C151.83 33.92 151.91 34.83 151.1 34.47C150.97 34.31 150.62 33.37 151.02 32.87C150.07 32.1 150.11 30.6 150.51 29.7C151.61 27.87 153.63 26.6 155.65 26.3C157.25 26.06 158.25 26.51 158.5 27.59L158.5 27.59ZM158.64 30.8C159.25 30.24 159.76 29.29 158.98 28.8C157.13 27.65 154.69 30.73 153.18 32.2C154.43 32.81 156.7 32.01 157.02 31.83C157.35 31.65 158.03 31.35 158.64 30.8L158.64 30.8ZM154.82 28.41C154.39 27.75 152.37 29.28 151.75 30.03C151.14 30.78 151.44 31.2 151.7 31.44C152.81 29.98 153.82 29.13 154.82 28.41Z" fill="url(#paint_linear_7_140_0)" fill-opacity="1.000000" fill-rule="nonzero"/>
				<path id="Vector" d="M227.97 47.68C229.79 47.83 231.71 47.01 232.4 46.39C235.07 44.04 234.51 41.88 233.81 40.71C231.63 37.08 226.33 36.31 224.75 36.93C223.17 37.55 223.15 38.07 223.21 38.47C223.3 39.09 223.82 39.2 223.98 39.08C224.09 38.99 224.17 38.94 224.08 38.64C223.99 38.35 224.39 38.06 224.83 38.01C226.61 37.78 228.81 39.2 229.42 39.63C231.98 41.45 232.48 43.86 232.1 44.64C231.72 45.41 229.5 45.68 227.71 45.26C227.71 45.26 227.61 43.17 227.75 40.34C227.77 39.95 227.46 39.62 226.89 39.78C225.89 40.05 225.58 43.87 225.57 44.06C225.56 44.32 225.04 43.65 224.83 43.38C224.62 43.12 224.07 43.17 223.93 43.55C223.87 43.7 223.27 45.08 224.35 46.13C224.71 46.48 225.26 46.78 225.51 46.92C225.66 47.77 225.95 48.7 226.78 48.6C227.46 48.5 227.73 48.66 227.97 47.67L227.97 47.68Z" fill="url(#paint_linear_7_141_0)" fill-opacity="1.000000" fill-rule="nonzero"/>
				<path id="Vector" d="M132.08 44.1C128.42 42.71 125.87 40.69 125.87 39.5C125.87 38.66 129.13 38.36 132.21 38.26C132.14 40.13 132.08 42.31 132.08 44.1ZM134.96 46.95C136.63 47.48 138.3 47.79 139.79 47.79C145.43 47.79 151.33 44.55 151.33 39.47C151.33 32.67 138.9 24 127.5 24C124.18 24 122.36 24.46 121.75 24.84C121.26 25.13 120.37 26.07 120.37 26.45C120.37 27.33 121.4 27.36 121.86 27.36C122.33 27.36 122.92 27.26 122.92 26.88C122.92 26.62 122.69 26.45 122.49 26.45C122.3 26.45 121.43 26.75 121.43 26.26C121.43 25.87 123.95 25.61 126.11 25.61C138.6 25.61 148.48 34.16 148.48 39.5C148.48 42.71 145.63 45.62 140.06 45.62C138.29 45.62 136.55 45.38 134.93 44.99C134.89 43.64 134.84 40.76 134.82 38.21C135.16 38.21 135.49 38.21 135.78 38.21C138.1 38.21 142.15 38.86 142.15 39.63C142.15 40.41 141.19 40.75 140.81 40.91C140.54 41.03 140.82 41.21 141.02 41.3C141.22 41.4 141.44 41.48 141.82 41.48C142.71 41.48 144.2 40.54 144.2 39.34C144.2 37.62 141.65 35.75 136.38 35.75C135.97 35.75 135.43 35.77 134.81 35.82C134.81 34.76 134.83 33.94 134.86 33.58C134.96 32.48 134.39 31.15 134.03 30.73C133.66 30.31 133.23 30.28 133 30.92C132.77 31.57 132.44 33.45 132.4 34C132.39 34.15 132.35 34.96 132.3 36.12C128.9 36.64 124.98 37.73 124.98 39.54C124.98 41.48 128.23 44.09 132.11 45.86C132.13 46.22 132.15 46.55 132.17 46.82C132.24 47.5 132.31 48.57 133.7 48.57C134.59 48.57 134.88 47.84 134.96 46.95L134.96 46.95Z" fill="url(#paint_linear_7_142_0)" fill-opacity="1.000000" fill-rule="nonzero"/>
				<path id="Vector" d="M235.49 45.1C235.54 45.1 235.67 45.1 235.75 45.24C235.78 45.3 235.78 45.35 235.78 45.38C235.78 45.41 235.78 45.44 235.77 45.46C235.76 45.5 235.73 45.58 235.64 45.63C235.62 45.64 235.59 45.65 235.55 45.66C235.6 45.69 235.61 45.7 235.65 45.75L235.82 45.99L235.89 46.09L235.79 46.16L235.73 46.07L235.58 45.85C235.56 45.82 235.54 45.79 235.52 45.77C235.52 45.76 235.5 45.73 235.48 45.72C235.44 45.69 235.4 45.69 235.31 45.69L235.31 46.13L235.2 46.13L235.2 45.1L235.5 45.1L235.49 45.1ZM235.31 45.59C235.36 45.59 235.41 45.59 235.45 45.59C235.53 45.59 235.57 45.57 235.6 45.55C235.62 45.52 235.67 45.48 235.67 45.39C235.67 45.37 235.67 45.34 235.65 45.31C235.63 45.25 235.58 45.22 235.54 45.2C235.49 45.19 235.44 45.19 235.43 45.19C235.39 45.19 235.35 45.19 235.31 45.19L235.31 45.59Z" fill="url(#paint_linear_7_143_0)" fill-opacity="1.000000" fill-rule="nonzero"/>
				<path id="Vector" d="M235.48 46.49C235.72 46.49 235.94 46.4 236.11 46.24C236.28 46.07 236.37 45.85 236.37 45.62C236.37 45.39 236.28 45.17 236.11 45.01C235.94 44.84 235.72 44.75 235.48 44.75C234.99 44.75 234.59 45.14 234.59 45.62C234.59 45.85 234.68 46.07 234.85 46.24C235.02 46.4 235.24 46.49 235.48 46.49L235.48 46.49ZM234.65 45.62C234.65 45.41 234.74 45.2 234.9 45.05C235.05 44.9 235.26 44.81 235.48 44.81C235.7 44.81 235.91 44.9 236.06 45.05C236.22 45.2 236.3 45.41 236.3 45.62C236.3 46.06 235.93 46.43 235.48 46.43C235.26 46.43 235.05 46.34 234.9 46.19C234.74 46.04 234.65 45.84 234.65 45.62Z" fill="url(#paint_linear_7_144_0)" fill-opacity="1.000000" fill-rule="nonzero"/>
				<path id="Vector" d="M196.68 50.43C197.25 50.43 197.54 50.47 197.85 50.6C198.36 50.81 198.67 51.23 198.67 51.68C198.67 52.12 198.38 52.53 197.9 52.75C197.56 52.91 197.31 52.95 196.63 52.95L195.83 52.95L195.83 54.64L194.47 54.64L194.47 50.43L196.67 50.43L196.68 50.43ZM195.83 52.18L196.27 52.18C197.02 52.18 197.28 52.05 197.28 51.68C197.28 51.34 197.01 51.21 196.3 51.21L195.83 51.21L195.83 52.18L195.83 52.18Z" fill="url(#paint_linear_7_145_0)" fill-opacity="1.000000" fill-rule="nonzero"/>
				<path id="Vector" d="M208.75 54.64L207.3 54.64L206.86 53.81L204.46 53.81L204.05 54.64L202.63 54.64L204.8 50.43L206.36 50.43L208.75 54.64L208.75 54.64ZM204.81 53.07L206.47 53.07L205.6 51.44L204.81 53.07Z" fill="url(#paint_linear_7_146_0)" fill-opacity="1.000000" fill-rule="nonzero"/>
				<path id="Vector" d="M215.65 50.43C216.43 50.43 216.71 50.48 217.06 50.64C217.48 50.86 217.76 51.25 217.76 51.64C217.76 51.95 217.59 52.24 217.3 52.45C217.16 52.54 217.07 52.58 216.84 52.67C217.12 52.78 217.36 53.02 217.61 53.46L217.82 53.82L217.96 54.05L218.13 54.34L218.27 54.57L218.31 54.64L216.84 54.64L216.8 54.59L216.7 54.42L216.6 54.23L216.44 53.96L216.24 53.6C216.03 53.24 215.77 53 215.52 52.95C215.4 52.93 215.37 52.93 215.13 52.93L214.93 52.93L214.93 54.64L213.58 54.64L213.58 50.43L215.64 50.43L215.65 50.43ZM214.94 52.16L215.49 52.16L215.6 52.15L215.76 52.15C216.12 52.14 216.36 51.95 216.36 51.68C216.36 51.36 216.11 51.2 215.61 51.2L214.94 51.2L214.94 52.16Z" fill="url(#paint_linear_7_147_0)" fill-opacity="1.000000" fill-rule="nonzero"/>
				<path id="Vector" d="M225.2 54.64L223.85 54.64L223.85 50.43L225.2 50.43L225.2 54.64Z" fill="url(#paint_linear_7_148_0)" fill-opacity="1.000000" fill-rule="nonzero"/>
				<path id="Vector" d="M234.43 51.57L234.34 51.53C233.69 51.28 233.17 51.16 232.7 51.16C232.22 51.16 231.89 51.29 231.89 51.5C231.89 51.68 232.17 51.83 232.77 52L233.19 52.12C234.23 52.41 234.67 52.81 234.67 53.45C234.67 54.19 233.83 54.69 232.57 54.69C232.11 54.69 231.69 54.62 231.15 54.46C230.83 54.37 230.81 54.36 230.67 54.29L230.67 53.38C231.06 53.57 231.27 53.66 231.53 53.74C231.87 53.85 232.2 53.9 232.53 53.9C233.06 53.9 233.34 53.77 233.34 53.52C233.34 53.31 233.16 53.19 232.61 53.05L232.32 52.97C231.91 52.85 231.68 52.77 231.43 52.66C231.23 52.58 231.06 52.47 230.93 52.36C230.71 52.16 230.57 51.87 230.57 51.57C230.57 50.85 231.38 50.38 232.61 50.38C233.21 50.38 233.74 50.47 234.43 50.7L234.43 51.57Z" fill="url(#paint_linear_7_149_0)" fill-opacity="1.000000" fill-rule="nonzero"/>
			</g>
			<path id="Vector" d="M107.37 20L108.37 20L108.37 52L107.37 52L107.37 20Z" fill="#1434CB" fill-opacity="1.000000" fill-rule="evenodd"/>
			<path id="Vector" d="M62.28 68.16C59.7 68.16 57.96 66.38 57.96 63.81C57.96 61.22 59.7 59.43 62.28 59.43C64.91 59.43 66.62 61.22 66.62 63.81C66.62 66.38 64.91 68.16 62.28 68.16ZM62.28 66.87C63.88 66.87 64.96 65.63 64.96 63.81C64.96 61.97 63.88 60.72 62.28 60.72C60.69 60.72 59.62 61.95 59.62 63.81C59.62 65.63 60.69 66.87 62.28 66.87ZM68.3 68L68.3 63.33L67.32 63.33L67.32 62.25L68.3 62.25L68.3 61.05C68.3 59.81 69.07 59.26 70.18 59.26C70.62 59.26 71.06 59.33 71.27 59.38L71.27 60.52C71.22 60.48 70.86 60.38 70.49 60.38C70.06 60.38 69.79 60.6 69.79 61.1L69.79 62.25L71.18 62.25L71.18 63.33L69.79 63.33L69.79 68L68.3 68ZM72.63 68L72.63 63.33L71.65 63.33L71.65 62.25L72.63 62.25L72.63 61.05C72.63 59.81 73.4 59.26 74.5 59.26C74.87 59.26 75.25 59.33 75.43 59.38L75.43 60.52C75.38 60.48 75.09 60.38 74.81 60.38C74.38 60.38 74.12 60.6 74.12 61.1L74.12 62.25L75.41 62.25L75.41 63.33L74.12 63.33L74.12 68L72.63 68ZM77.11 61.42C76.57 61.42 76.18 61.17 76.18 60.65C76.18 60.12 76.57 59.84 77.11 59.84C77.67 59.84 78.05 60.12 78.05 60.65C78.05 61.17 77.65 61.42 77.11 61.42ZM76.37 68L76.37 62.25L77.86 62.25L77.86 68L76.37 68ZM82.21 68.14C80.39 68.14 79.13 66.99 79.13 65.13C79.13 63.3 80.34 62.1 82.23 62.1C82.97 62.1 83.63 62.28 83.97 62.48L83.97 63.77C83.65 63.54 83.15 63.27 82.43 63.27C81.27 63.27 80.66 63.95 80.66 65.1C80.66 66.3 81.3 66.96 82.41 66.96C83.15 66.96 83.65 66.71 83.97 66.46L83.97 67.77C83.58 68 82.97 68.14 82.21 68.14ZM86.04 61.42C85.5 61.42 85.12 61.17 85.12 60.65C85.12 60.12 85.5 59.84 86.04 59.84C86.61 59.84 86.99 60.12 86.99 60.65C86.99 61.17 86.58 61.42 86.04 61.42ZM85.31 68L85.31 62.25L86.8 62.25L86.8 68L85.31 68ZM89.87 68.08C88.78 68.08 87.96 67.47 87.96 66.27C87.96 65.26 88.84 64.47 90.37 64.47C90.78 64.47 91.14 64.51 91.45 64.61L91.45 64.18C91.45 63.54 91.12 63.16 90.21 63.16C89.25 63.16 88.56 63.54 88.43 63.6L88.43 62.48C88.57 62.4 89.33 62.09 90.46 62.09C92.05 62.09 92.92 62.74 92.92 64.04L92.92 66.38C92.92 66.89 93.11 67.07 93.4 67.07C93.54 67.07 93.64 67.04 93.67 67.02L93.67 67.91C93.61 67.95 93.53 67.97 93.45 68C93.29 68.03 93.07 68.07 92.77 68.07C92.1 68.07 91.75 67.79 91.61 67.28C91.21 67.8 90.73 68.08 89.87 68.08ZM90.36 67.04C90.85 67.04 91.23 66.81 91.45 66.48L91.45 65.41C91.26 65.36 91.01 65.33 90.71 65.33C89.85 65.33 89.5 65.74 89.5 66.21C89.5 66.75 89.82 67.04 90.36 67.04ZM96.51 68.08C95.21 68.08 94.6 67.49 94.6 66.06L94.6 59.36L96.09 59.36L96.09 66.08C96.09 66.69 96.35 66.91 96.93 66.91C97.25 66.91 97.51 66.84 97.55 66.83L97.55 67.95C97.51 67.98 97.04 68.08 96.51 68.08ZM102.01 68L102.01 59.6L104.81 59.6C106.97 59.6 108.11 60.65 108.11 62.34C108.11 63.93 106.94 65.1 104.8 65.1L103.62 65.1L103.62 68L102.01 68ZM103.62 63.91L104.59 63.91C105.83 63.91 106.49 63.41 106.49 62.34C106.49 61.29 105.84 60.78 104.6 60.78L103.62 60.78L103.62 63.91ZM110.41 68.08C109.32 68.08 108.5 67.47 108.5 66.27C108.5 65.26 109.38 64.47 110.92 64.47C111.32 64.47 111.68 64.51 112 64.61L112 64.18C112 63.54 111.66 63.16 110.75 63.16C109.79 63.16 109.1 63.54 108.97 63.6L108.97 62.48C109.12 62.4 109.87 62.09 111 62.09C112.6 62.09 113.46 62.74 113.46 64.04L113.46 66.38C113.46 66.89 113.65 67.07 113.94 67.07C114.08 67.07 114.18 67.04 114.22 67.02L114.22 67.91C114.16 67.95 114.07 67.97 113.99 68C113.83 68.03 113.62 68.07 113.32 68.07C112.64 68.07 112.3 67.79 112.15 67.28C111.76 67.8 111.28 68.08 110.41 68.08ZM110.9 67.04C111.4 67.04 111.77 66.81 112 66.48L112 65.41C111.8 65.36 111.55 65.33 111.25 65.33C110.39 65.33 110.04 65.74 110.04 66.21C110.04 66.75 110.36 67.04 110.9 67.04ZM114.76 70.92C114.43 70.92 114.17 70.88 113.98 70.78L113.98 69.63C114.16 69.71 114.35 69.74 114.7 69.74C115.45 69.74 115.99 69.22 116.34 68.26L116.53 67.76L114.12 62.25L115.68 62.25L117.25 66.12L118.69 62.25L120.16 62.25L117.77 68.19C117 70.1 116.21 70.92 114.76 70.92ZM129.72 64.24L129.72 68L128.23 68L128.23 64.54C128.23 63.62 127.87 63.32 127.26 63.32C126.69 63.32 126.33 63.65 126.06 64.07L126.06 68L124.58 68L124.58 64.53C124.58 63.62 124.22 63.32 123.61 63.32C123.09 63.32 122.7 63.65 122.42 64.04L122.42 68L120.93 68L120.93 63.63C120.93 62.9 120.86 62.33 120.85 62.25L122.23 62.25C122.27 62.3 122.33 62.67 122.39 63.16C122.71 62.73 123.2 62.1 124.23 62.1C125.19 62.1 125.65 62.51 125.93 63.22C126.31 62.61 126.87 62.1 127.79 62.1C129.17 62.1 129.72 63.03 129.72 64.24ZM134.06 68.14C132.1 68.14 130.88 66.95 130.88 65.1C130.88 63.34 132.05 62.1 133.83 62.1C135.41 62.1 136.52 63.17 136.52 64.73C136.52 65.02 136.47 65.44 136.47 65.46L132.38 65.46C132.49 66.46 133.06 67 134.26 67C134.99 67 135.64 66.8 136.22 66.4L136.22 67.53C135.65 67.92 134.92 68.14 134.06 68.14ZM132.39 64.51L135.11 64.51C135.11 64.49 135.11 64.47 135.11 64.44C135.11 63.69 134.63 63.15 133.76 63.15C132.99 63.15 132.44 63.74 132.39 64.51ZM137.75 68L137.75 63.65C137.75 62.9 137.68 62.33 137.67 62.25L139.05 62.25C139.08 62.3 139.14 62.64 139.2 63.16C139.55 62.72 140.07 62.1 141.08 62.1C142.37 62.1 143.03 62.98 143.03 64.28L143.03 68L141.56 68L141.56 64.55C141.56 63.6 141.12 63.32 140.51 63.32C139.94 63.32 139.54 63.64 139.24 64.04L139.24 68L137.75 68ZM146.84 68.14C145.53 68.14 144.88 67.55 144.88 66.11L144.88 63.33L143.86 63.33L143.86 62.25L144.88 62.25L144.88 61L146.36 60.72L146.36 62.25L147.85 62.25L147.85 63.33L146.36 63.33L146.36 66.11C146.36 66.74 146.66 66.98 147.23 66.98C147.52 66.98 147.74 66.91 147.89 66.86L147.89 68C147.68 68.08 147.36 68.14 146.84 68.14ZM152.53 68L152.53 59.6L155.33 59.6C157.49 59.6 158.63 60.65 158.63 62.34C158.63 63.93 157.46 65.1 155.32 65.1L154.14 65.1L154.14 68L152.53 68ZM154.14 63.91L155.11 63.91C156.35 63.91 157.01 63.41 157.01 62.34C157.01 61.29 156.36 60.78 155.12 60.78L154.14 60.78L154.14 63.91ZM160.93 68.08C159.84 68.08 159.02 67.47 159.02 66.27C159.02 65.26 159.9 64.47 161.44 64.47C161.84 64.47 162.2 64.51 162.52 64.61L162.52 64.18C162.52 63.54 162.18 63.16 161.27 63.16C160.31 63.16 159.62 63.54 159.49 63.6L159.49 62.48C159.64 62.4 160.39 62.09 161.52 62.09C163.12 62.09 163.98 62.74 163.98 64.04L163.98 66.38C163.98 66.89 164.17 67.07 164.46 67.07C164.6 67.07 164.7 67.04 164.74 67.02L164.74 67.91C164.68 67.95 164.59 67.97 164.51 68C164.35 68.03 164.14 68.07 163.84 68.07C163.16 68.07 162.82 67.79 162.67 67.28C162.28 67.8 161.8 68.08 160.93 68.08ZM161.42 67.04C161.92 67.04 162.29 66.81 162.52 66.48L162.52 65.41C162.32 65.36 162.07 65.33 161.77 65.33C160.91 65.33 160.56 65.74 160.56 66.21C160.56 66.75 160.88 67.04 161.42 67.04ZM165.67 68L165.67 63.66C165.67 63.03 165.62 62.49 165.58 62.25L166.96 62.25C167 62.31 167.07 62.74 167.12 63.17C167.37 62.75 167.92 62.1 168.75 62.1C169.1 62.1 169.34 62.18 169.47 62.26L169.47 63.56C169.29 63.47 169.05 63.38 168.58 63.38C167.97 63.38 167.44 63.63 167.15 63.95L167.15 68L165.67 68ZM173.05 68.14C171.74 68.14 171.08 67.55 171.08 66.11L171.08 63.33L170.06 63.33L170.06 62.25L171.08 62.25L171.08 61L172.57 60.72L172.57 62.25L174.05 62.25L174.05 63.33L172.57 63.33L172.57 66.11C172.57 66.74 172.87 66.98 173.43 66.98C173.72 66.98 173.95 66.91 174.09 66.86L174.09 68C173.89 68.08 173.56 68.14 173.05 68.14ZM175.19 68L175.19 63.65C175.19 62.9 175.12 62.33 175.11 62.25L176.49 62.25C176.52 62.3 176.58 62.64 176.64 63.16C176.99 62.72 177.51 62.1 178.52 62.1C179.81 62.1 180.47 62.98 180.47 64.28L180.47 68L179 68L179 64.55C179 63.6 178.56 63.32 177.95 63.32C177.38 63.32 176.98 63.64 176.68 64.04L176.68 68L175.19 68ZM184.81 68.14C182.86 68.14 181.63 66.95 181.63 65.1C181.63 63.34 182.81 62.1 184.58 62.1C186.17 62.1 187.27 63.17 187.27 64.73C187.27 65.02 187.22 65.44 187.22 65.46L183.13 65.46C183.24 66.46 183.82 67 185.02 67C185.75 67 186.4 66.8 186.97 66.4L186.97 67.53C186.41 67.92 185.68 68.14 184.81 68.14ZM183.14 64.51L185.87 64.51C185.87 64.49 185.87 64.47 185.87 64.44C185.87 63.69 185.39 63.15 184.51 63.15C183.74 63.15 183.19 63.74 183.14 64.51ZM188.51 68L188.51 63.66C188.51 63.03 188.46 62.49 188.42 62.25L189.8 62.25C189.84 62.31 189.91 62.74 189.96 63.17C190.21 62.75 190.76 62.1 191.59 62.1C191.94 62.1 192.18 62.18 192.31 62.26L192.31 63.56C192.13 63.47 191.89 63.38 191.42 63.38C190.81 63.38 190.28 63.63 189.99 63.95L189.99 68L188.51 68Z" fill="#1434CB" fill-opacity="1.000000" fill-rule="nonzero"/>
		</g>
	</g>
</svg>
