<svg width="1440.000000" height="43.200195" viewBox="0 0 1440 43.2002" fill="none" xmlns="http://www.w3.org/2000/svg" xmlns:xlink="http://www.w3.org/1999/xlink">
	<desc>
			Created with Pixso.
	</desc>
	<defs>
		<clipPath id="clip1_648">
			<rect id="Component 1" rx="0.000000" width="1439.280029" height="42.480000" transform="translate(0.360000 0.360000)" fill="white" fill-opacity="0"/>
		</clipPath>
	</defs>
	<g clip-path="url(#clip1_648)">
		<path id="Vector" d="M746.28 21.6L1108.43 21.6C1108.66 21.6 1108.8 21.74 1108.8 21.96C1108.8 22.17 1108.66 22.32 1108.43 22.32L746.28 22.32C746.06 22.32 745.92 22.17 745.92 21.96C745.92 21.74 746.06 21.6 746.28 21.6Z" fill="#606F80" fill-opacity="1.000000" fill-rule="nonzero"/>
		<path id="Vector" d="M331.56 21.6L693.72 21.6C693.93 21.6 694.08 21.74 694.08 21.96C694.08 22.17 693.93 22.32 693.72 22.32L331.56 22.32C331.34 22.32 331.2 22.17 331.2 21.96C331.2 21.74 331.34 21.6 331.56 21.6Z" fill="#606F80" fill-opacity="1.000000" fill-rule="nonzero"/>
		<path id="Vector" d="M720 4.31C729.57 4.31 737.28 12.02 737.28 21.59C737.28 31.17 729.57 38.87 720 38.87C710.42 38.87 702.72 31.17 702.72 21.59C702.72 12.02 710.42 4.31 720 4.31Z" fill="#FFFFFF" fill-opacity="1.000000" fill-rule="nonzero"/>
		<path id="Vector" d="M715.68 29.8L724.32 29.8L724.32 17.13L724.32 16.12C724.32 14.61 723.09 13.46 721.65 13.46L718.48 13.46C716.97 13.46 715.82 14.68 715.82 16.12L715.82 17.13L715.82 29.8L715.68 29.8ZM717.4 20.87C718.05 20.44 718.84 20.59 719.2 21.09C719.35 21.38 719.42 21.67 719.28 21.96C719.49 21.88 719.71 21.81 720 21.81C720.28 21.81 720.5 21.81 720.72 21.96C720.64 21.67 720.64 21.31 720.79 21.09C721.15 20.59 721.94 20.44 722.59 20.87C723.24 21.31 723.45 22.03 723.16 22.6C722.95 22.96 722.44 23.18 721.94 23.04C722.08 23.32 722.16 23.68 722.16 24.04C722.16 25.27 721.15 26.2 720 26.2C718.84 26.2 717.84 25.19 717.84 24.04C717.84 22.89 717.91 23.32 718.05 23.04C717.55 23.11 717.04 23.04 716.83 22.6C716.47 22.1 716.76 21.31 717.4 20.87ZM717.55 16.05C717.55 15.55 717.91 15.19 718.41 15.19L721.58 15.19C722.08 15.19 722.44 15.55 722.44 16.05L722.44 17.06L717.55 17.06L717.55 16.05Z" fill="#606F80" fill-opacity="1.000000" fill-rule="evenodd"/>
		<path id="Vector" d="M714.74 17.13L712.58 17.13C711.86 17.13 711.36 17.71 711.36 18.35L711.36 28.51C711.36 29.23 711.93 29.73 712.58 29.73L714.74 29.73L714.74 17.06L714.74 17.13Z" fill="#606F80" fill-opacity="1.000000" fill-rule="nonzero"/>
		<path id="Vector" d="M725.25 17.13L727.41 17.13C728.13 17.13 728.64 17.71 728.64 18.35L728.64 28.51C728.64 29.23 728.06 29.73 727.41 29.73L725.25 29.73L725.25 17.06L725.25 17.13Z" fill="#606F80" fill-opacity="1.000000" fill-rule="nonzero"/>
	</g>
</svg>
