<svg width="32.000000" height="32.000000" viewBox="0 0 32 32" fill="none" xmlns="http://www.w3.org/2000/svg" xmlns:xlink="http://www.w3.org/1999/xlink">
	<desc>
			Created with Pixso.
	</desc>
	<defs>
		<clipPath id="clip3_193">
			<rect id="Component 1" rx="0.000000" width="30.666666" height="30.666666" transform="translate(0.666667 0.666667)" fill="white" fill-opacity="0"/>
		</clipPath>
		<clipPath id="clip3_194">
			<rect id="e0C2__TICKETS_tcm752-245132.svg fill" rx="0.000000" width="31.000000" height="31.000000" transform="translate(0.500000 0.500000)" fill="white" fill-opacity="0"/>
		</clipPath>
		<clipPath id="clip3_195">
			<rect id="e0C2__TICKETS_tcm752-245132.svg" rx="0.000000" width="31.000000" height="31.000000" transform="translate(0.500000 0.500000)" fill="white" fill-opacity="0"/>
		</clipPath>
	</defs>
	<g clip-path="url(#clip3_195)">
		<g clip-path="url(#clip3_194)">
			<g clip-path="url(#clip3_193)">
				<path id="Vector" d="M27.77 10.95C27.85 11.04 27.91 11.14 27.96 11.26C28.03 11.44 27.99 11.65 27.84 11.78C27.84 11.78 27.84 11.78 27.83 11.78C27.83 11.79 27.81 11.8 27.81 11.8C27 12.52 26.92 13.79 27.64 14.62C27.78 14.78 27.79 15.02 27.67 15.18C27.62 15.26 27.57 15.32 27.51 15.37L18.38 23.47L18.38 10.03L18.35 9.89C18.17 9.17 17.48 8.64 16.69 8.63C16.33 8.63 16.03 8.38 15.92 8.05L18.77 5.52C18.77 5.52 18.77 5.52 18.78 5.52C18.84 5.47 18.9 5.43 18.98 5.38C19.17 5.28 19.4 5.32 19.54 5.48C19.54 5.49 19.56 5.51 19.57 5.52C20.03 6.04 20.77 6.28 21.47 6.14C21.82 6.07 22.14 5.91 22.41 5.67L22.43 5.65C22.58 5.51 22.81 5.5 22.99 5.61C23.07 5.66 23.14 5.72 23.2 5.79L27.77 10.95Z" fill="#253050" fill-opacity="1.000000" fill-rule="nonzero"/>
				<path id="Vector" d="M14.69 7.83C14.69 8.91 15.59 9.81 16.69 9.82C16.9 9.82 17.14 9.97 17.19 10.17L17.19 23.8C17.19 23.9 17.17 24 17.14 24.1C17.13 24.13 17.12 24.16 17.1 24.19C17.02 24.33 16.87 24.42 16.71 24.42C16 24.43 15.35 24.82 14.99 25.44C14.82 25.73 14.73 26.08 14.72 26.43C14.72 26.62 14.6 26.79 14.42 26.85C14.3 26.9 14.18 26.91 14.07 26.92L7.17 26.93C7.08 26.93 6.99 26.92 6.89 26.9C6.69 26.84 6.55 26.66 6.55 26.45C6.54 25.34 5.64 24.44 4.53 24.44C4.31 24.46 4.15 24.33 4.08 24.13C4.04 24.02 4.03 23.9 4.03 23.8L4 10.44L4 10.44C4 10.36 4 10.28 4.03 10.2C4.07 9.99 4.26 9.84 4.47 9.84C4.48 9.84 4.5 9.85 4.52 9.85C5.22 9.85 5.89 9.46 6.25 8.83C6.42 8.52 6.52 8.18 6.51 7.82L6.51 7.79C6.51 7.58 6.65 7.4 6.85 7.35C6.95 7.32 7.04 7.3 7.12 7.3L14.02 7.29C14.14 7.29 14.26 7.31 14.38 7.35C14.56 7.42 14.69 7.59 14.69 7.79C14.69 7.8 14.69 7.82 14.69 7.83ZM12.66 16.69C13.19 16.8 13.71 16.63 13.97 16.21C14.34 15.65 14.07 14.83 13.37 14.38C12.68 13.94 11.82 14.05 11.46 14.62C11.28 14.9 11.26 15.25 11.36 15.58C11.12 15.5 10.86 15.45 10.59 15.45C10.33 15.45 10.07 15.5 9.83 15.58C9.93 15.25 9.91 14.9 9.73 14.62C9.37 14.05 8.51 13.94 7.81 14.38C7.12 14.83 6.85 15.65 7.22 16.21C7.48 16.63 8 16.8 8.53 16.69C8.36 17.02 8.26 17.38 8.26 17.78C8.26 19.07 9.31 20.11 10.59 20.11C11.88 20.11 12.93 19.07 12.93 17.78C12.93 17.38 12.83 17.02 12.66 16.69Z" fill="#253050" fill-opacity="1.000000" fill-rule="evenodd"/>
			</g>
		</g>
	</g>
</svg>
