<svg width="32.000000" height="32.000000" viewBox="0 0 32 32" fill="none" xmlns="http://www.w3.org/2000/svg" xmlns:xlink="http://www.w3.org/1999/xlink">
	<desc>
			Created with Pixso.
	</desc>
	<defs>
		<clipPath id="clip3_211">
			<rect id="Component 1" rx="0.000000" width="31.000000" height="31.000000" transform="translate(0.500000 0.500000)" fill="white" fill-opacity="0"/>
		</clipPath>
		<clipPath id="clip3_212">
			<rect id="e0FD__SPECIAL-OFFERS_tcm752-262166.svg fill" rx="0.000000" width="31.000000" height="31.000000" transform="translate(0.500000 0.500000)" fill="white" fill-opacity="0"/>
		</clipPath>
	</defs>
	<g clip-path="url(#clip3_212)">
		<g clip-path="url(#clip3_211)">
			<path id="Vector" d="M27.77 12.34L24.89 7.29C24.8 7.14 24.68 7 24.54 6.89C24.39 6.78 24.23 6.7 24.06 6.65L19.18 5.34C19.06 5.32 18.93 5.32 18.81 5.34C18.57 5.34 18.33 5.4 18.12 5.52L4.7 13.24C4.54 13.33 4.4 13.45 4.28 13.6C4.17 13.74 4.09 13.91 4.04 14.09C3.99 14.27 3.98 14.46 4.01 14.64C4.03 14.82 4.1 15 4.19 15.16L10.68 26.39C10.8 26.6 10.98 26.78 11.19 26.9C11.4 27.02 11.64 27.08 11.88 27.08C12.12 27.08 12.36 27.02 12.57 26.9L25.99 19.18C26.31 19 26.54 18.69 26.64 18.34L27.95 13.46C28 13.27 28.01 13.07 27.98 12.88C27.95 12.69 27.87 12.5 27.77 12.34ZM18.68 18.55L16.76 18.63C16.56 18.64 16.36 18.71 16.19 18.81C16.01 18.91 15.86 19.05 15.75 19.21L14.73 20.82C14.53 21.14 14.27 21.11 14.14 20.76L13.47 18.97C13.39 18.79 13.27 18.62 13.12 18.48C12.97 18.35 12.79 18.25 12.6 18.19L10.75 17.72C10.4 17.63 10.35 17.37 10.63 17.14L12.13 15.96C12.28 15.83 12.4 15.66 12.49 15.48C12.57 15.29 12.61 15.09 12.61 14.89L12.49 12.97C12.49 12.61 12.69 12.47 12.99 12.67L14.59 13.74C14.76 13.84 14.95 13.9 15.16 13.93C15.36 13.95 15.56 13.93 15.75 13.86L17.52 13.15C17.86 13.02 18.06 13.15 17.96 13.55L17.44 15.39C17.4 15.58 17.4 15.79 17.44 15.99C17.48 16.19 17.57 16.37 17.69 16.54L18.91 18C19.19 18.32 19.08 18.53 18.72 18.55L18.68 18.55ZM23.96 12.8C23.71 12.94 23.42 13.01 23.14 12.99C22.85 12.97 22.57 12.86 22.35 12.69C22.12 12.51 21.95 12.27 21.86 12C21.76 11.73 21.75 11.43 21.83 11.15C21.9 10.88 22.06 10.63 22.28 10.44C22.49 10.25 22.76 10.13 23.05 10.09C23.33 10.05 23.62 10.1 23.88 10.23C24.14 10.35 24.35 10.55 24.5 10.8C24.6 10.97 24.67 11.15 24.7 11.35C24.73 11.54 24.73 11.74 24.68 11.93C24.63 12.12 24.55 12.29 24.43 12.45C24.31 12.61 24.17 12.74 24 12.84L23.96 12.8Z" fill="#091129" fill-opacity="1.000000" fill-rule="nonzero"/>
		</g>
	</g>
</svg>
