<svg width="32.000000" height="32.000000" viewBox="0 0 32 32" fill="none" xmlns="http://www.w3.org/2000/svg" xmlns:xlink="http://www.w3.org/1999/xlink">
	<desc>
			Created with Pixso.
	</desc>
	<defs>
		<clipPath id="clip3_187">
			<rect id="Component 1" rx="0.000000" width="31.030304" height="30.060608" transform="translate(0.484848 0.969712)" fill="white" fill-opacity="0"/>
		</clipPath>
		<clipPath id="clip3_188">
			<rect id="e302__INFO_tcm752-270009.svg fill" rx="0.000000" width="31.000000" height="31.000000" transform="translate(0.500000 0.500000)" fill="white" fill-opacity="0"/>
		</clipPath>
		<clipPath id="clip3_189">
			<rect id="e302__INFO_tcm752-270009.svg" rx="0.000000" width="31.000000" height="31.000000" transform="translate(0.500000 0.500000)" fill="white" fill-opacity="0"/>
		</clipPath>
	</defs>
	<g clip-path="url(#clip3_189)">
		<g clip-path="url(#clip3_188)">
			<g clip-path="url(#clip3_187)">
				<path id="Vector" d="M16 4.36C13.69 4.36 11.44 5.04 9.53 6.32C7.62 7.6 6.13 9.42 5.24 11.54C4.36 13.67 4.13 16.01 4.58 18.27C5.03 20.52 6.14 22.6 7.77 24.22C9.39 25.85 11.47 26.96 13.72 27.41C15.98 27.86 18.32 27.63 20.45 26.75C22.57 25.86 24.39 24.37 25.67 22.46C26.95 20.55 27.63 18.3 27.63 16C27.63 12.91 26.41 9.95 24.22 7.77C22.04 5.58 19.08 4.36 16 4.36ZM18.11 21.94C18.11 22.5 17.89 23.04 17.49 23.44C17.09 23.83 16.56 24.06 16 24.06C15.43 24.06 14.9 23.83 14.5 23.44C14.1 23.04 13.88 22.5 13.88 21.94L13.88 16.96C13.88 16.4 14.1 15.86 14.5 15.46C14.9 15.06 15.43 14.84 16 14.84C16.56 14.84 17.09 15.06 17.49 15.46C17.89 15.86 18.11 16.4 18.11 16.96L18.11 21.94ZM16 12.88C15.53 12.88 15.08 12.75 14.7 12.49C14.32 12.24 14.02 11.87 13.84 11.45C13.67 11.02 13.62 10.56 13.71 10.1C13.8 9.65 14.02 9.24 14.35 8.91C14.67 8.59 15.09 8.36 15.54 8.28C15.99 8.19 16.46 8.23 16.89 8.41C17.31 8.58 17.67 8.88 17.93 9.26C18.19 9.65 18.32 10.1 18.32 10.56C18.33 10.86 18.27 11.17 18.15 11.45C18.04 11.74 17.86 12 17.65 12.21C17.43 12.43 17.17 12.6 16.89 12.72C16.61 12.84 16.3 12.9 16 12.9L16 12.88Z" fill="#253050" fill-opacity="1.000000" fill-rule="nonzero"/>
			</g>
		</g>
	</g>
</svg>
