<svg width="32.000000" height="32.000000" viewBox="0 0 32 32" fill="none" xmlns="http://www.w3.org/2000/svg" xmlns:xlink="http://www.w3.org/1999/xlink">
	<desc>
			Created with Pixso.
	</desc>
	<defs>
		<clipPath id="clip3_201">
			<rect id="Component 1" rx="0.000000" width="31.000000" height="31.000000" transform="translate(0.500000 0.500000)" fill="white" fill-opacity="0"/>
		</clipPath>
		<clipPath id="clip3_202">
			<rect id="icon_e38d_genie-lamp_black700_32_tcm752-271391.svg fill" rx="0.000000" width="31.000000" height="31.000000" transform="translate(0.500000 0.500000)" fill="white" fill-opacity="0"/>
		</clipPath>
		<clipPath id="clip3_203">
			<rect id="icon_e38d_genie-lamp_black700_32_tcm752-271391.svg" rx="0.000000" width="31.000000" height="31.000000" transform="translate(0.500000 0.500000)" fill="white" fill-opacity="0"/>
		</clipPath>
	</defs>
	<g clip-path="url(#clip3_203)">
		<g clip-path="url(#clip3_202)">
			<g clip-path="url(#clip3_201)">
				<path id="Vector" d="M24.6 8.67C24.45 8.54 24.48 8.4 24.67 8.36L25.68 8.16C25.87 8.11 26.1 7.93 26.17 7.75L26.57 6.8C26.65 6.62 26.79 6.61 26.89 6.79L27.4 7.68C27.49 7.85 27.73 8 27.93 8.02L28.95 8.11C29.15 8.12 29.2 8.25 29.07 8.4L28.38 9.16C28.24 9.31 28.17 9.58 28.22 9.77L28.45 10.78C28.5 10.97 28.39 11.06 28.21 10.98L27.27 10.55C27.09 10.47 26.81 10.49 26.64 10.59L25.76 11.12C25.59 11.23 25.47 11.15 25.49 10.95L25.6 9.93C25.63 9.74 25.52 9.47 25.37 9.34L24.6 8.67Z" fill="#253050" fill-opacity="1.000000" fill-rule="nonzero"/>
				<path id="Vector" d="M15.22 9.75C15.22 9.97 15.1 10.17 14.89 10.33C16.56 10.57 17.89 11.43 18.3 12.55L9.66 12.55C10.07 11.43 11.4 10.57 13.07 10.33C12.86 10.18 12.74 9.97 12.74 9.75C12.74 9.27 13.29 8.89 13.98 8.89C14.67 8.89 15.22 9.27 15.22 9.75Z" fill="#253050" fill-opacity="1.000000" fill-rule="nonzero"/>
				<path id="Vector" d="M23.75 10.51C23.75 11.01 23.34 11.42 22.83 11.42C22.33 11.42 21.92 11.01 21.92 10.51C21.92 10 22.33 9.59 22.83 9.59C23.34 9.59 23.75 10 23.75 10.51Z" fill="#253050" fill-opacity="1.000000" fill-rule="nonzero"/>
				<path id="Vector" d="M28.47 12.39C28.86 12.3 29.23 12.56 29.31 12.94C29.39 13.33 29.15 13.71 28.77 13.79C28.72 13.8 23.54 15 21.15 18.65C20.01 20.4 17.8 21.41 16.58 21.87C17.53 22.44 18.24 23.31 18.53 24.34L9.43 24.34C9.76 23.17 10.62 22.2 11.77 21.64C10.62 21.39 9.62 20.96 8.83 20.39C8.81 20.39 8.8 20.4 8.79 20.4C8.77 20.4 8.76 20.41 8.74 20.41C8.72 20.41 8.7 20.41 8.69 20.41C7.14 20.31 5.7 19.96 4.61 19.43C2.84 18.56 2.63 17.49 2.67 16.93C2.79 14.91 5.95 13.99 9.03 14.17C9.07 14.15 21.18 14.17 21.18 14.17C24.49 13.18 28.21 12.44 28.47 12.39L28.47 12.39ZM5.36 17.9C5.88 18.16 6.54 18.36 7.25 18.5C7.11 18.14 7.03 17.77 7.03 17.38C7.03 16.88 7.16 16.4 7.4 15.94C5.46 16.09 4.38 16.72 4.36 17.04C4.36 17.16 4.59 17.52 5.36 17.9Z" fill="#253050" fill-opacity="1.000000" fill-rule="evenodd"/>
			</g>
		</g>
	</g>
</svg>
