<svg width="24.000000" height="24.000000" viewBox="0 0 24 24" fill="none" xmlns="http://www.w3.org/2000/svg" xmlns:xlink="http://www.w3.org/1999/xlink">
	<desc>
			Created with Pixso.
	</desc>
	<defs>
		<clipPath id="clip1_399">
			<rect id="Component 1" rx="0.000000" width="71.000000" height="71.000000" transform="translate(-23.500000 -23.500000)" fill="white" fill-opacity="0"/>
		</clipPath>
		<clipPath id="clip1_398">
			<rect id="United-Kingdom-gbr_tcm805-163447.svg fill" rx="0.000000" width="23.000000" height="23.000000" transform="translate(0.500000 0.500000)" fill="white" fill-opacity="0"/>
		</clipPath>
	</defs>
	<g clip-path="url(#clip1_398)">
		<g clip-path="url(#clip1_399)">
			<path id="Vector" d="M-5.4 -0.4L29.4 -0.4L29.4 24.4L-5.4 24.4L-5.4 -0.4Z" fill="#FFFFFF" fill-opacity="1.000000" fill-rule="evenodd"/>
			<path id="Vector" d="M18.5 8.6L30 0.7L30 -0.4L29.2 -0.4L16.1 8.6L18.5 8.6Z" fill="#EC1C24" fill-opacity="1.000000" fill-rule="nonzero"/>
			<path id="Vector" d="M16.29 15.9L29.3 24.8L29.3 23.2L18.7 15.9L16.29 15.9Z" fill="#EC1C24" fill-opacity="1.000000" fill-rule="nonzero"/>
			<path id="Vector" d="M-5.2 1.5L5.1 8.59L7.5 8.59L-5.2 -0.11L-5.2 1.5Z" fill="#EC1C24" fill-opacity="1.000000" fill-rule="nonzero"/>
			<path id="Vector" d="M5.59 15.9L-6.5 24.2L-6.5 24.4L-4.41 24.4L8 15.9L5.59 15.9Z" fill="#EC1C24" fill-opacity="1.000000" fill-rule="nonzero"/>
			<path id="Vector" d="M27.3 -0.9L15.1 -0.9L15.1 7.4L27.3 -0.9Z" fill="#123884" fill-opacity="1.000000" fill-rule="nonzero"/>
			<path id="Vector" d="M9.09 -0.9L-3 -0.9L9.09 7.4L9.09 -0.9Z" fill="#123884" fill-opacity="1.000000" fill-rule="nonzero"/>
			<path id="Vector" d="M29.9 8.59L29.9 2.89L21.6 8.59L29.9 8.59Z" fill="#123884" fill-opacity="1.000000" fill-rule="nonzero"/>
			<path id="Vector" d="M29.9 21.5L29.9 15.9L21.6 15.9L29.9 21.5Z" fill="#123884" fill-opacity="1.000000" fill-rule="nonzero"/>
			<path id="Vector" d="M-2.3 24.7L9.1 24.7L9.1 16.9L-2.3 24.7Z" fill="#123884" fill-opacity="1.000000" fill-rule="nonzero"/>
			<path id="Vector" d="M15.1 24.7L26.6 24.7L15.1 16.9L15.1 24.7Z" fill="#123884" fill-opacity="1.000000" fill-rule="nonzero"/>
			<path id="Vector" d="M-5.8 15.9L-5.8 21.8L2.7 15.9L-5.8 15.9Z" fill="#123884" fill-opacity="1.000000" fill-rule="nonzero"/>
			<path id="Vector" d="M-5.8 8.59L2.7 8.59L-5.8 2.7L-5.8 8.59Z" fill="#123884" fill-opacity="1.000000" fill-rule="nonzero"/>
			<path id="Vector" d="M10.5 -0.4L10.5 10L-5.4 10L-5.4 14.5L10.5 14.5L10.5 24.4L13.8 24.4L13.8 14.5L29.4 14.5L29.4 10L13.8 10L13.8 -0.4L10.5 -0.4Z" fill="#EC1C24" fill-opacity="1.000000" fill-rule="nonzero"/>
			<path id="Vector" d="M28.7 0C28.9 0 29 0.19 29 0.3L29 23.6C29 23.8 28.8 23.9 28.7 23.9L-4.71 23.9C-4.91 23.9 -5 23.7 -5 23.6L-5 0.3C-5 0.1 -4.8 0 -4.71 0L28.7 0ZM28.7 -3L-4.71 -3C-6.5 -3 -8 -1.5 -8 0.3L-8 23.6C-8 25.4 -6.5 26.9 -4.71 26.9L28.6 26.9C30.4 26.9 31.9 25.4 31.9 23.6L31.9 0.3C32 -1.5 30.5 -3 28.7 -3Z" fill="#253B56" fill-opacity="1.000000" fill-rule="nonzero"/>
		</g>
	</g>
</svg>
