<svg width="1440.000000" height="43.189941" viewBox="0 0 1440 43.1899" fill="none" xmlns="http://www.w3.org/2000/svg" xmlns:xlink="http://www.w3.org/1999/xlink">
	<desc>
			Created with Pixso.
	</desc>
	<defs>
		<clipPath id="clip1_623">
			<rect id="Component 1" rx="0.000000" width="1439.280029" height="42.480000" transform="translate(0.360000 0.355117)" fill="white" fill-opacity="0"/>
		</clipPath>
		<clipPath id="clip1_622">
			<rect id="separator-special-offer-desktop_tcm752-285988.svg fill" rx="0.000000" width="1439.000000" height="42.189999" transform="translate(0.500000 0.500000)" fill="white" fill-opacity="0"/>
		</clipPath>
		<clipPath id="clip1_621">
			<rect id="separator-special-offer-desktop_tcm752-285988.svg" rx="0.000000" width="1439.000000" height="42.189999" transform="translate(0.500000 0.500000)" fill="white" fill-opacity="0"/>
		</clipPath>
	</defs>
	<g clip-path="url(#clip1_621)">
		<g clip-path="url(#clip1_622)">
			<g clip-path="url(#clip1_623)">
				<path id="Vector" d="M746.28 21.59L1108.43 21.59C1108.66 21.59 1108.8 21.73 1108.8 21.95C1108.8 22.17 1108.66 22.31 1108.43 22.31L746.28 22.31C746.06 22.31 745.92 22.17 745.92 21.95C745.92 21.73 746.06 21.59 746.28 21.59Z" fill="#606F80" fill-opacity="1.000000" fill-rule="nonzero"/>
				<path id="Vector" d="M331.56 21.59L693.72 21.59C693.93 21.59 694.08 21.73 694.08 21.95C694.08 22.17 693.93 22.31 693.72 22.31L331.56 22.31C331.34 22.31 331.2 22.17 331.2 21.95C331.2 21.73 331.34 21.59 331.56 21.59Z" fill="#606F80" fill-opacity="1.000000" fill-rule="nonzero"/>
				<path id="Vector" d="M720 4.31C729.57 4.31 737.28 12.01 737.28 21.59C737.28 31.17 729.57 38.87 720 38.87C710.42 38.87 702.72 31.17 702.72 21.59C702.72 12.01 710.42 4.31 720 4.31Z" fill="#FFFFFF" fill-opacity="1.000000" fill-rule="nonzero"/>
				<path id="Vector" d="M728.49 18.78L726.4 15.18C726.4 15.04 726.26 14.97 726.12 14.89C726.04 14.82 725.9 14.75 725.76 14.75L722.23 13.81C722.16 13.81 722.08 13.81 721.94 13.81C721.8 13.81 721.58 13.81 721.44 13.96L711.79 19.5C711.64 19.5 711.57 19.65 711.5 19.79C711.43 19.86 711.36 20.01 711.36 20.15C711.36 20.29 711.36 20.44 711.36 20.51C711.36 20.65 711.36 20.8 711.5 20.87L716.18 28.93C716.25 29.08 716.4 29.22 716.54 29.29C716.68 29.37 716.83 29.44 717.04 29.44C717.19 29.44 717.4 29.44 717.55 29.29L727.2 23.75C727.41 23.61 727.56 23.39 727.63 23.17L728.56 19.65C728.56 19.5 728.56 19.36 728.56 19.21C728.56 19.07 728.49 18.93 728.42 18.85L728.49 18.78ZM721.94 23.25L720.57 23.25C720.43 23.25 720.28 23.39 720.14 23.46C720 23.53 719.92 23.61 719.85 23.75L719.13 24.9C718.99 25.12 718.77 25.12 718.7 24.9L718.2 23.61C718.2 23.46 718.05 23.32 717.91 23.25C717.76 23.17 717.69 23.1 717.55 23.03L716.18 22.67C715.89 22.67 715.89 22.45 716.11 22.24L717.19 21.37C717.33 21.3 717.4 21.16 717.48 21.01C717.48 20.87 717.55 20.73 717.55 20.58L717.55 19.21C717.48 18.93 717.55 18.85 717.84 19L718.99 19.79C719.13 19.86 719.28 19.93 719.42 19.93C719.56 19.93 719.71 19.93 719.85 19.93L721.15 19.43C721.36 19.36 721.51 19.43 721.44 19.72L721.08 21.01C721.08 21.16 721.08 21.3 721.08 21.45C721.08 21.59 721.15 21.73 721.22 21.81L722.08 22.89C722.3 23.1 722.23 23.25 721.94 23.25ZM725.76 19.14C725.61 19.21 725.4 19.29 725.18 19.29C724.96 19.29 724.75 19.21 724.6 19.07C724.46 18.93 724.32 18.78 724.24 18.57C724.24 18.35 724.17 18.13 724.24 17.99C724.24 17.77 724.39 17.63 724.53 17.49C724.68 17.34 724.89 17.27 725.11 17.27C725.32 17.27 725.54 17.27 725.68 17.34C725.9 17.41 726.04 17.56 726.12 17.77C726.19 17.92 726.26 17.99 726.26 18.13C726.26 18.28 726.26 18.42 726.26 18.57C726.26 18.71 726.19 18.85 726.12 18.93C726.04 19.07 725.9 19.14 725.83 19.21L725.76 19.14Z" fill="#606F80" fill-opacity="1.000000" fill-rule="nonzero"/>
			</g>
		</g>
	</g>
</svg>
