<svg width="1440.000000" height="43.189941" viewBox="0 0 1440 43.1899" fill="none" xmlns="http://www.w3.org/2000/svg" xmlns:xlink="http://www.w3.org/1999/xlink">
	<desc>
			Created with Pixso.
	</desc>
	<defs>
		<clipPath id="clip1_559">
			<rect id="Component 1" rx="0.000000" width="1439.280029" height="42.480000" transform="translate(0.360000 0.355117)" fill="white" fill-opacity="0"/>
		</clipPath>
		<clipPath id="clip1_558">
			<rect id="separator-genie-lamp-desktop_tcm752-285979.svg fill" rx="0.000000" width="1439.000000" height="42.189999" transform="translate(0.500000 0.500000)" fill="white" fill-opacity="0"/>
		</clipPath>
		<clipPath id="clip1_557">
			<rect id="separator-genie-lamp-desktop_tcm752-285979.svg" rx="0.000000" width="1439.000000" height="42.189999" transform="translate(0.500000 0.500000)" fill="white" fill-opacity="0"/>
		</clipPath>
	</defs>
	<g clip-path="url(#clip1_557)">
		<g clip-path="url(#clip1_558)">
			<g clip-path="url(#clip1_559)">
				<path id="Vector" d="M746.28 21.59L1108.43 21.59C1108.66 21.59 1108.8 21.73 1108.8 21.95C1108.8 22.17 1108.66 22.31 1108.43 22.31L746.28 22.31C746.06 22.31 745.92 22.17 745.92 21.95C745.92 21.73 746.06 21.59 746.28 21.59Z" fill="#606F80" fill-opacity="1.000000" fill-rule="nonzero"/>
				<path id="Vector" d="M331.56 21.59L693.72 21.59C693.93 21.59 694.08 21.73 694.08 21.95C694.08 22.17 693.93 22.31 693.72 22.31L331.56 22.31C331.34 22.31 331.2 22.17 331.2 21.95C331.2 21.73 331.34 21.59 331.56 21.59Z" fill="#606F80" fill-opacity="1.000000" fill-rule="nonzero"/>
				<path id="Vector" d="M720 4.31C729.57 4.31 737.28 12.01 737.28 21.59C737.28 31.17 729.57 38.87 720 38.87C710.42 38.87 702.72 31.17 702.72 21.59C702.72 12.01 710.42 4.31 720 4.31Z" fill="#FFFFFF" fill-opacity="1.000000" fill-rule="nonzero"/>
				<path id="Vector" d="M725.54 17.2C725.47 17.13 725.47 17.05 725.54 16.98L726.19 16.84C726.33 16.84 726.48 16.69 726.48 16.55L726.76 15.9C726.76 15.76 726.91 15.76 726.98 15.9L727.34 16.48C727.34 16.62 727.56 16.69 727.7 16.69L728.35 16.69C728.49 16.69 728.49 16.84 728.42 16.91L727.99 17.41C727.92 17.49 727.84 17.7 727.92 17.85L728.06 18.49C728.06 18.64 728.06 18.71 727.92 18.64L727.34 18.35C727.2 18.35 727.05 18.35 726.91 18.35L726.33 18.71C726.19 18.71 726.12 18.71 726.19 18.57L726.19 17.92C726.26 17.77 726.19 17.63 726.12 17.56L725.61 17.13L725.54 17.2Z" fill="#606F80" fill-opacity="1.000000" fill-rule="nonzero"/>
				<path id="Vector" d="M719.49 17.85C719.49 17.99 719.42 18.13 719.28 18.21C720.36 18.35 721.22 18.93 721.51 19.65L715.89 19.65C716.18 18.93 717.04 18.35 718.12 18.21C717.98 18.13 717.91 17.99 717.91 17.85C717.91 17.56 718.27 17.27 718.7 17.27C719.13 17.27 719.49 17.49 719.49 17.85Z" fill="#606F80" fill-opacity="1.000000" fill-rule="nonzero"/>
				<path id="Vector" d="M725.04 18.35C725.04 18.71 724.75 18.93 724.46 18.93C724.17 18.93 723.88 18.64 723.88 18.35C723.88 18.06 724.17 17.77 724.46 17.77C724.75 17.77 725.04 18.06 725.04 18.35Z" fill="#606F80" fill-opacity="1.000000" fill-rule="nonzero"/>
				<path id="Vector" d="M728.06 19.57C728.28 19.57 728.56 19.72 728.64 19.93C728.64 20.15 728.56 20.44 728.28 20.51C728.28 20.51 724.89 21.3 723.31 23.68C722.59 24.83 721.15 25.48 720.36 25.77C721 26.13 721.44 26.7 721.65 27.35L715.75 27.35C715.96 26.56 716.54 25.98 717.26 25.62C716.54 25.48 715.89 25.19 715.39 24.83C714.38 24.83 713.44 24.54 712.72 24.18C711.57 23.61 711.43 22.96 711.43 22.6C711.5 21.3 713.59 20.73 715.53 20.8L723.38 20.8C725.54 20.15 727.92 19.65 728.13 19.65L728.06 19.57ZM713.08 23.17C713.44 23.32 713.88 23.46 714.31 23.53C714.24 23.32 714.16 23.03 714.16 22.81C714.16 22.6 714.24 22.17 714.38 21.88C713.16 21.95 712.44 22.38 712.44 22.6C712.44 22.67 712.58 22.89 713.08 23.17Z" fill="#606F80" fill-opacity="1.000000" fill-rule="evenodd"/>
			</g>
		</g>
	</g>
</svg>
