<svg width="1440.000000" height="43.189941" viewBox="0 0 1440 43.1899" fill="none" xmlns="http://www.w3.org/2000/svg" xmlns:xlink="http://www.w3.org/1999/xlink">
	<desc>
			Created with Pixso.
	</desc>
	<defs>
		<clipPath id="clip1_603">
			<rect id="Component 1" rx="0.000000" width="1439.280029" height="42.480000" transform="translate(0.360000 0.355117)" fill="white" fill-opacity="0"/>
		</clipPath>
		<clipPath id="clip1_602">
			<rect id="separator-info-desktop_tcm752-285980.svg fill" rx="0.000000" width="1439.000000" height="42.189999" transform="translate(0.500000 0.500000)" fill="white" fill-opacity="0"/>
		</clipPath>
		<clipPath id="clip1_601">
			<rect id="separator-info-desktop_tcm752-285980.svg" rx="0.000000" width="1439.000000" height="42.189999" transform="translate(0.500000 0.500000)" fill="white" fill-opacity="0"/>
		</clipPath>
	</defs>
	<g clip-path="url(#clip1_601)">
		<g clip-path="url(#clip1_602)">
			<g clip-path="url(#clip1_603)">
				<path id="Vector" d="M746.28 21.59L1108.43 21.59C1108.66 21.59 1108.8 21.73 1108.8 21.95C1108.8 22.17 1108.66 22.31 1108.43 22.31L746.28 22.31C746.06 22.31 745.92 22.17 745.92 21.95C745.92 21.73 746.06 21.59 746.28 21.59Z" fill="#606F80" fill-opacity="1.000000" fill-rule="nonzero"/>
				<path id="Vector" d="M331.56 21.59L693.72 21.59C693.93 21.59 694.08 21.73 694.08 21.95C694.08 22.17 693.93 22.31 693.72 22.31L331.56 22.31C331.34 22.31 331.2 22.17 331.2 21.95C331.2 21.73 331.34 21.59 331.56 21.59Z" fill="#606F80" fill-opacity="1.000000" fill-rule="nonzero"/>
				<path id="Vector" d="M720 4.31C729.57 4.31 737.28 12.01 737.28 21.59C737.28 31.17 729.57 38.87 720 38.87C710.42 38.87 702.72 31.17 702.72 21.59C702.72 12.01 710.42 4.31 720 4.31Z" fill="#FFFFFF" fill-opacity="1.000000" fill-rule="nonzero"/>
				<path id="Vector" d="M720 12.95C718.27 12.95 716.61 13.45 715.17 14.39C713.73 15.33 712.65 16.69 712 18.28C711.36 19.86 711.21 21.59 711.5 23.25C711.86 24.9 712.65 26.49 713.88 27.64C715.1 28.86 716.61 29.65 718.27 30.01C719.92 30.37 721.65 30.16 723.24 29.51C724.82 28.86 726.19 27.78 727.12 26.34C728.06 24.9 728.56 23.25 728.56 21.52C728.56 19.79 727.63 17.05 726.04 15.4C724.39 13.74 722.23 12.88 719.92 12.88L720 12.95ZM721.58 25.98C721.58 26.41 721.44 26.77 721.15 27.06C720.86 27.35 720.43 27.49 720.07 27.49C719.71 27.49 719.28 27.35 718.99 27.06C718.7 26.77 718.56 26.34 718.56 25.98L718.56 22.31C718.56 21.88 718.7 21.52 718.99 21.23C719.28 20.94 719.71 20.8 720.07 20.8C720.43 20.8 720.86 20.94 721.15 21.23C721.44 21.52 721.58 21.95 721.58 22.31L721.58 25.98ZM720 19.29C719.64 19.29 719.35 19.21 719.06 19C718.77 18.78 718.56 18.57 718.41 18.21C718.27 17.92 718.27 17.56 718.34 17.2C718.34 16.84 718.56 16.55 718.84 16.33C719.06 16.12 719.42 15.9 719.71 15.83C720.07 15.83 720.36 15.83 720.72 15.9C721 16.05 721.29 16.26 721.51 16.55C721.72 16.84 721.8 17.2 721.8 17.49C721.8 17.7 721.8 17.92 721.65 18.13C721.58 18.35 721.44 18.57 721.29 18.71C721.15 18.85 720.93 19 720.72 19.07C720.5 19.14 720.28 19.21 720.07 19.21L720 19.29Z" fill="#606F80" fill-opacity="1.000000" fill-rule="nonzero"/>
			</g>
		</g>
	</g>
</svg>
