<svg width="16.000000" height="16.001404" viewBox="0 0 16 16.0014" fill="none" xmlns="http://www.w3.org/2000/svg" xmlns:xlink="http://www.w3.org/1999/xlink">
	<desc>
			Created with Pixso.
	</desc>
	<defs/>
	<path id="Vector" d="M12.86 10.8C12.67 11.12 12.32 11.31 11.97 11.31C11.79 11.31 11.62 11.27 11.46 11.17L7.48 8.88C7.16 8.7 6.97 8.36 6.97 8L6.97 2.73C6.97 2.17 7.43 1.71 7.99 1.71C8.56 1.71 9.02 2.17 9.02 2.73L9.02 7.4L12.48 9.39C12.97 9.68 13.14 10.31 12.86 10.8ZM7.99 0C3.58 0 0 3.58 0 8C0 12.41 3.58 16 7.99 16C12.41 16 16 12.41 16 8C16 3.58 12.41 0 7.99 0Z" fill="#0046E4" fill-opacity="1.000000" fill-rule="evenodd"/>
</svg>
