<svg width="11.675903" height="11.992798" viewBox="0 0 11.6759 11.9928" fill="none" xmlns="http://www.w3.org/2000/svg" xmlns:xlink="http://www.w3.org/1999/xlink">
	<desc>
			Created with Pixso.
	</desc>
	<defs/>
	<path id="Vector" d="M9.72 0.04C9.59 0.06 9.45 0.11 9.31 0.19C9.17 0.27 9.05 0.36 8.94 0.46C8.83 0.56 7.99 1.78 6.4 4.12C4.81 6.46 4.01 7.62 4 7.62C3.99 7.62 3.8 7.38 3.43 6.9C3.06 6.42 2.81 6.11 2.67 5.98C2.53 5.84 2.35 5.73 2.14 5.66C2.01 5.61 1.86 5.59 1.69 5.58C1.52 5.56 1.37 5.58 1.24 5.61C1.05 5.65 0.86 5.74 0.68 5.87C0.49 6 0.34 6.16 0.24 6.33C0.09 6.56 0.01 6.82 0 7.1C-0.01 7.37 0.04 7.63 0.17 7.88C0.24 8 0.69 8.61 1.53 9.73C2.37 10.84 2.85 11.45 2.97 11.56C3.24 11.82 3.56 11.96 3.93 11.98C4.31 12.01 4.65 11.92 4.97 11.7C5.09 11.62 5.18 11.54 5.24 11.46C5.31 11.39 6.35 9.88 8.37 6.93C10.39 3.98 11.44 2.45 11.5 2.34C11.59 2.19 11.64 2.02 11.66 1.81C11.68 1.6 11.67 1.4 11.63 1.21C11.59 1.06 11.53 0.93 11.47 0.82C11.4 0.7 11.31 0.59 11.2 0.47C10.99 0.27 10.77 0.13 10.52 0.06C10.27 -0.02 10 -0.02 9.72 0.04Z" fill="#0046E4" fill-opacity="1.000000" fill-rule="nonzero"/>
</svg>
