<svg width="13.995972" height="8.478027" viewBox="0 0 13.996 8.47803" fill="none" xmlns="http://www.w3.org/2000/svg" xmlns:xlink="http://www.w3.org/1999/xlink">
	<desc>
			Created with Pixso.
	</desc>
	<defs/>
	<path id="Vector" d="M0.92 0.05C0.81 0.1 0.69 0.16 0.56 0.24L0.3 0.43C0.19 0.53 0.1 0.77 0.03 1.15C-0.01 1.44 -0.02 1.68 0.02 1.87C0.06 2.06 0.15 2.25 0.3 2.43C0.41 2.57 1.4 3.58 3.27 5.45C5.15 7.32 6.11 8.27 6.18 8.31C6.24 8.34 6.39 8.37 6.61 8.41C6.83 8.45 7 8.47 7.11 8.47C7.42 8.47 7.7 8.37 7.95 8.16C8.13 8.03 9.14 7.04 10.99 5.18C12.84 3.33 13.78 2.36 13.81 2.28C14.07 1.77 14.05 1.23 13.76 0.67C13.67 0.47 13.56 0.32 13.44 0.23C13.32 0.14 13.13 0.08 12.89 0.04C12.64 0 12.4 -0.01 12.18 0.01C11.95 0.04 11.77 0.1 11.63 0.19C11.53 0.26 10.74 1.03 9.25 2.52L6.99 4.78L4.69 2.47C3.14 0.94 2.32 0.15 2.24 0.12C2.05 0.06 1.82 0.02 1.56 0C1.29 -0.01 1.08 0 0.92 0.05Z" fill="#253050" fill-opacity="1.000000" fill-rule="nonzero"/>
</svg>
