<svg width="13.679993" height="20.016602" viewBox="0 0 13.68 20.0166" fill="none" xmlns="http://www.w3.org/2000/svg" xmlns:xlink="http://www.w3.org/1999/xlink">
	<desc>
			Created with Pixso.
	</desc>
	<defs/>
	<path id="Vector" d="M6.33 0.02C5.32 0.13 4.43 0.5 3.64 1.12C2.86 1.75 2.31 2.53 1.99 3.47C1.88 3.76 1.8 4.03 1.77 4.29C1.74 4.55 1.72 4.9 1.7 5.35L1.67 6.21L4.32 6.21L4.34 5.42C4.34 5.08 4.35 4.85 4.36 4.72C4.38 4.59 4.4 4.48 4.44 4.39C4.6 3.95 4.83 3.59 5.14 3.29C5.46 3 5.82 2.8 6.24 2.71C6.43 2.66 6.67 2.64 6.96 2.65C7.24 2.65 7.48 2.7 7.67 2.78C8.04 2.91 8.36 3.11 8.64 3.39C8.91 3.67 9.11 4.01 9.24 4.41C9.28 4.52 9.31 4.64 9.32 4.76C9.33 4.88 9.34 5.11 9.35 5.44L9.38 6.21L12.02 6.21L12 5.39C11.98 4.82 11.93 4.35 11.85 3.99C11.77 3.63 11.64 3.25 11.44 2.85C11.28 2.55 11.07 2.23 10.81 1.9C10.54 1.57 10.27 1.3 9.98 1.07C9.47 0.69 8.89 0.4 8.24 0.21C7.59 0.02 6.96 -0.05 6.33 0.02ZM0.76 7.75C0.63 7.79 0.5 7.89 0.36 8.03L0.31 8.08C0.19 8.19 0.12 8.3 0.09 8.39C0.04 8.52 0.02 8.78 0.02 9.16C0 9.42 0 10.03 0 11.01L0 11.37C0 12.78 0.01 13.69 0.03 14.09C0.05 14.5 0.11 14.86 0.19 15.16C0.38 15.88 0.68 16.55 1.1 17.18C1.24 17.39 1.46 17.64 1.75 17.95C2.03 18.25 2.28 18.48 2.49 18.62C3.32 19.24 4.27 19.66 5.34 19.87C6.4 20.07 7.46 20.06 8.52 19.82C9.7 19.56 10.72 19.06 11.56 18.32C12.41 17.57 13.01 16.67 13.36 15.62C13.48 15.28 13.55 14.99 13.58 14.75C13.63 14.47 13.66 14.06 13.68 13.53C13.68 13.1 13.68 12.32 13.68 11.2L13.68 8.59L13.58 8.37C13.52 8.23 13.41 8.1 13.27 7.99L13.22 7.91C13.14 7.85 13.07 7.81 13 7.79C12.89 7.75 12.69 7.72 12.39 7.71C12.1 7.7 11.6 7.69 10.92 7.67L6.84 7.67C4.19 7.69 2.54 7.7 1.88 7.7C1.22 7.7 0.84 7.71 0.76 7.75ZM7.58 10.91C7.96 11.09 8.24 11.37 8.42 11.75C8.48 11.88 8.52 11.98 8.53 12.05C8.53 12.13 8.54 12.27 8.54 12.5C8.54 12.72 8.53 12.87 8.53 12.93C8.52 12.99 8.47 13.1 8.39 13.24C8.3 13.45 8.18 13.62 8.04 13.75L7.82 13.94L7.8 15.02C7.8 15.53 7.79 15.85 7.77 15.97C7.75 16.09 7.73 16.19 7.7 16.27C7.51 16.62 7.22 16.79 6.84 16.79C6.71 16.79 6.57 16.76 6.43 16.7C6.28 16.63 6.17 16.55 6.08 16.43C5.99 16.32 5.94 16.18 5.91 16.01C5.89 15.85 5.88 15.49 5.88 14.95L5.88 13.96L5.66 13.75C5.34 13.46 5.16 13.11 5.11 12.7C5.06 12.29 5.14 11.92 5.36 11.57C5.58 11.23 5.89 10.99 6.31 10.84C6.44 10.79 6.64 10.77 6.91 10.77C7.08 10.77 7.21 10.78 7.28 10.79C7.35 10.81 7.45 10.85 7.58 10.91Z" fill="#202249" fill-opacity="1.000000" fill-rule="nonzero"/>
</svg>
