<svg width="14.886902" height="14.862854" viewBox="0 0 14.8869 14.8629" fill="none" xmlns="http://www.w3.org/2000/svg" xmlns:xlink="http://www.w3.org/1999/xlink">
	<desc>
			Created with Pixso.
	</desc>
	<defs/>
	<path id="Vector" d="M11.29 9.06L14.43 12.18C14.73 12.47 14.88 12.82 14.88 13.23C14.88 13.64 14.73 13.99 14.43 14.28L14.31 14.43C14.01 14.71 13.65 14.86 13.24 14.86C12.83 14.86 12.47 14.71 12.18 14.43L9.05 11.3L9.02 11.25C7.89 11.92 6.64 12.16 5.27 11.99C3.91 11.82 2.74 11.25 1.76 10.28C0.59 9.1 0 7.69 6.1e-5 6.03C-0.01 4.36 0.58 2.94 1.76 1.76C2.94 0.58 4.36 0 6.03 0C7.7 0 9.13 0.58 10.3 1.76C11.26 2.72 11.83 3.89 12 5.28C12.17 6.67 11.92 7.91 11.26 9.01C11.28 9.01 11.29 9.03 11.29 9.06ZM3.69 8.37C4.33 9.01 5.11 9.33 6.03 9.33C6.94 9.33 7.73 9.01 8.38 8.37C9.03 7.72 9.36 6.94 9.36 6.03C9.36 5.11 9.03 4.33 8.38 3.68C7.71 3.02 6.92 2.69 6.02 2.69C5.11 2.7 4.34 3.03 3.69 3.68C3.04 4.33 2.71 5.11 2.71 6.03C2.71 6.94 3.04 7.72 3.69 8.37Z" fill="#202249" fill-opacity="1.000000" fill-rule="nonzero"/>
</svg>
